<?xml version="1.0" encoding="UTF-8"?>
<svg width="27px" height="30px" viewBox="0 0 27 30" version="1.1" xmlns="http://www.w3.org/2000/svg" xmlns:xlink="http://www.w3.org/1999/xlink">
    <!-- Generator: Sketch 63.1 (92452) - https://sketch.com -->
    <title>Facebook</title>
    <desc>Created with Sketch.</desc>
    <g id="Prototype" stroke="none" stroke-width="1" fill="none" fill-rule="evenodd">
        <g id="BlogDetail" transform="translate(-275.000000, -2159.000000)" fill="#1A1A1A" fill-rule="nonzero">
            <g id="article" transform="translate(70.000000, 987.000000)">
                <g id="icons" transform="translate(97.000000, 1171.000000)">
                    <g id="Facebook" transform="translate(108.156028, 1.000000)">
                        <path d="M25.1309188,0 L1.46482587,0 C0.65582488,0 0,0.739770465 0,1.65232358 L0,28.3476764 C0,29.2602295 0.65582488,30 1.46482587,30 L14.2076665,30 L14.2076665,18.3820998 L10.7229831,18.3820998 L10.7229831,13.8640275 L14.1905006,13.8640275 L14.1905006,10.5141997 C14.1905006,6.64156627 16.2847438,4.53098107 19.340279,4.53098107 C20.3743313,4.52563263 21.4078303,4.5859691 22.4358681,4.71170396 L22.4358681,8.75860585 L20.3416249,8.75860585 C18.6708079,8.75860585 18.3503772,9.65576592 18.3503772,10.9660069 L18.3503772,13.8575731 L22.3557604,13.8575731 L21.8350606,18.3756454 L18.401875,18.3756454 L18.401875,29.9935456 L25.1309188,29.9935456 C25.9399198,29.9935456 26.5957447,29.2537751 26.5957447,28.341222 L26.5957447,1.65232358 C26.5957447,0.739770465 25.9399198,0 25.1309188,0 Z"></path>
                    </g>
                </g>
            </g>
        </g>
    </g>
</svg>