<?xml version="1.0" encoding="UTF-8"?>
<svg width="22px" height="33px" viewBox="0 0 22 33" version="1.1" xmlns="http://www.w3.org/2000/svg" xmlns:xlink="http://www.w3.org/1999/xlink">
    <!-- Generator: Sketch 63.1 (92452) - https://sketch.com -->
    <title>bookmark</title>
    <desc>Created with Sketch.</desc>
    <g id="Prototype" stroke="none" stroke-width="1" fill="none" fill-rule="evenodd">
        <g id="BlogDetail" transform="translate(-395.000000, -2158.000000)" fill="#000000">
            <g id="article" transform="translate(70.000000, 987.000000)">
                <g id="icons" transform="translate(97.000000, 1171.000000)">
                    <g id="bookmark" transform="translate(228.723404, 0.000000)">
                        <g id="Shape">
                            <path d="M20.4839621,0 L0.79263367,0 C0.355318542,0 0,0.394500393 0,0.880039338 L0,32.1197499 C0,32.4383849 0.156400896,32.7334172 0.406946022,32.8885199 C0.657491147,33.0436226 0.965737574,33.036879 1.21020888,32.8682891 L10.6382979,26.3826352 L20.0663869,32.8682891 C20.1939371,32.9559559 20.3381904,33 20.4839621,33 C20.6160677,33 20.7496918,32.9626995 20.8696497,32.8885199 C21.1217133,32.7334172 21.2765957,32.4383849 21.2765957,32.1197499 L21.2765957,0.880039338 C21.2765957,0.394500393 20.9212772,0 20.4839621,0 Z M19.6913284,30.5383766 L11.0558731,24.598954 C10.7992541,24.4236205 10.4773416,24.4236205 10.2207227,24.598954 L1.58526734,30.5383766 L1.58526734,1.76007868 L19.68981,1.76007868 L19.68981,30.5383766 L19.6913284,30.5383766 Z" fill-rule="nonzero"></path>
                        </g>
                    </g>
                </g>
            </g>
        </g>
    </g>
</svg>