<?xml version="1.0" encoding="UTF-8"?>
<svg width="27px" height="31px" viewBox="0 0 27 31" version="1.1" xmlns="http://www.w3.org/2000/svg" xmlns:xlink="http://www.w3.org/1999/xlink">
    <!-- Generator: Sketch 63.1 (92452) - https://sketch.com -->
    <title>TikTok</title>
    <desc>Created with Sketch.</desc>
    <g id="Prototype" stroke="none" stroke-width="1" fill="none" fill-rule="evenodd">
        <g id="BlogDetail" transform="translate(-879.000000, -2432.000000)" fill="#1A1A1A">
            <g id="footer" transform="translate(0.000000, 2312.000000)">
                <g id="social-icons" transform="translate(523.000000, 119.000000)">
                    <g id="TikTok" transform="translate(356.000000, 1.000000)">
                        <path d="M19.6553883,0 C20.1882208,4.40521811 22.6828457,7.02808139 27,7.29632877 L27,12.2201585 C24.4872103,12.4586006 22.2892762,11.6240532 19.7341022,10.13379 L19.7341022,19.4032272 C19.7341022,31.1703457 6.70392539,34.8363933 1.47853386,26.4134255 C-1.8879988,20.9948284 0.17672717,11.4631048 10.9726404,11.0935195 L10.9726404,16.3213629 C10.1267757,16.4566626 9.29276337,16.6559547 8.47801544,16.9174682 C6.0560495,17.7102882 4.72396823,19.2184346 5.09937295,21.859181 C5.83201765,26.920115 15.2595201,28.4163393 14.4723812,18.5329135 L14.4723812,0.0178831588 L19.6796079,0.0178831588 L19.6553883,0 Z" id="Path"></path>
                    </g>
                </g>
            </g>
        </g>
    </g>
</svg>