<?xml version="1.0" encoding="UTF-8"?>
<svg width="42px" height="34px" viewBox="0 0 42 34" version="1.1" xmlns="http://www.w3.org/2000/svg" xmlns:xlink="http://www.w3.org/1999/xlink">
    <!-- Generator: Sketch 63.1 (92452) - https://sketch.com -->
    <title>send</title>
    <desc>Created with Sketch.</desc>
    <g id="Prototype" stroke="none" stroke-width="1" fill="none" fill-rule="evenodd">
        <g id="BlogDetail" transform="translate(-328.000000, -2158.000000)" fill="#000000">
            <g id="article" transform="translate(70.000000, 987.000000)">
                <g id="icons" transform="translate(97.000000, 1171.000000)">
                    <g id="send" transform="translate(161.347518, 0.000000)">
                        <g id="Shape">
                            <path d="M0.54017183,16.312717 L10.4646192,20.3703651 L13.1509762,33.284592 C13.1574477,33.3159138 13.1739748,33.3408805 13.1830349,33.370727 C13.1962267,33.4145321 13.2108622,33.4553867 13.2299281,33.4969221 C13.2611405,33.5648994 13.2995213,33.6241953 13.3436269,33.6804837 C13.3596064,33.7010244 13.3665259,33.7270124 13.3843474,33.7462481 C13.3925612,33.7550431 13.4033635,33.75771 13.4117765,33.7660512 C13.4657883,33.8197862 13.5270682,33.8600166 13.5917829,33.896048 C13.615578,33.9092122 13.6363365,33.9291288 13.6608783,33.9395126 C13.7499854,33.9773597 13.8449169,34 13.9442788,34 C13.9466683,34 13.9490578,34 13.9514473,34 C14.0543437,33.9990354 14.1517642,33.9725934 14.2431612,33.9312282 C14.2685991,33.919823 14.2899051,33.8996795 14.3143972,33.8852102 C14.3826463,33.8447528 14.4451707,33.7974864 14.5007257,33.7372827 C14.5117273,33.7253668 14.5263627,33.7212814 14.5368664,33.7085711 L21.7341865,25.0231273 L28.243639,27.6943319 C28.3344387,27.731555 28.4276279,27.7492585 28.5200206,27.7492585 C28.8202968,27.7492585 29.1062362,27.5590581 29.2480112,27.2381231 L40.6863843,1.36450243 C40.7118719,1.30957582 40.7317842,1.25192548 40.7477139,1.1924595 C40.7636437,1.12845405 40.7739981,1.06263296 40.7779805,0.996811769 C40.7891314,0.822045199 40.7572718,0.643193206 40.6792159,0.481590911 C40.6624896,0.447091516 40.6433739,0.413500035 40.6226652,0.38127033 C40.5063779,0.199240734 40.3399117,0.0784929459 40.1591088,0.027651767 C40.1591088,0.027651767 40.1583123,0.027651767 40.1583123,0.0271978105 L40.1575158,0.0271978105 C40.1575158,0.0271978105 40.1559228,0.0271978105 40.1559228,0.0267438539 C40.1399931,0.0222044746 40.1232668,0.0185729153 40.107337,0.0153954056 C40.107337,0.014941449 40.1065405,0.014941449 40.1065405,0.014941449 C39.9719339,-0.0132027402 39.8325484,-0.00185429177 39.6995349,0.0512565768 L0.56326999,14.5532491 C0.231930723,14.6762666 0.00572791315,15.0262536 7.5027226e-05,15.4234503 C-0.00462642875,15.821101 0.212018477,16.1783511 0.54017183,16.312717 Z M15.6320382,20.9964606 C15.5687174,21.0517202 15.5155517,21.1175488 15.4700026,21.189101 C15.4620875,21.2015276 15.457657,21.2161104 15.4502397,21.2289909 C15.4034958,21.3106999 15.3702921,21.3994451 15.3479407,21.4934104 C15.3443067,21.5085607 15.3347489,21.5197389 15.331762,21.5352863 L13.9140123,28.8940929 L12.0899538,20.1277346 L29.8907776,8.55172022 L15.6320382,20.9964606 Z M15.3717855,29.9943279 L16.7255175,22.9678046 L20.0603656,24.3363175 L15.3717855,29.9943279 Z M28.1169974,25.6661322 L21.794869,23.0718135 C21.7935747,23.0713028 21.7923302,23.0708488 21.7910856,23.0702815 L17.8104346,21.4367816 L37.6350364,4.13489295 L28.1169974,25.6661322 Z M32.6442387,4.62060775 L11.0777162,18.64551 L3.33743979,15.4806466 L32.6442387,4.62060775 Z" fill-rule="nonzero"></path>
                        </g>
                    </g>
                </g>
            </g>
        </g>
    </g>
</svg>