<?xml version="1.0" encoding="UTF-8"?>
<svg width="36px" height="22px" viewBox="0 0 36 22" version="1.1" xmlns="http://www.w3.org/2000/svg" xmlns:xlink="http://www.w3.org/1999/xlink">
    <!-- Generator: Sketch 64 (93537) - https://sketch.com -->
    <title>arrow fwd</title>
    <desc>Created with Sketch.</desc>
    <g id="GCC-Landing-Page" stroke="none" stroke-width="1" fill="none" fill-rule="evenodd">
        <g id="GCC_LandingPage_AnonymousUser" transform="translate(-1334.000000, -4301.000000)" fill="#FFFFFF" fill-rule="nonzero" stroke="#FFFFFF" stroke-width="0.5">
            <g id="courses" transform="translate(0.000000, 4027.000000)">
                <g id="arrow-fwd-white" transform="translate(1335.000000, 275.000000)">
                    <path d="M33.2547571,9.2603293 L2.54332778,9.2603293 L10.6012663,1.26264084 C10.8923768,0.973707012 10.8923768,0.505634205 10.6012663,0.216700374 C10.3101558,-0.0722334579 9.83855677,-0.0722334579 9.54744628,0.216700374 L0.217991704,9.47639766 C0.148989443,9.54470343 0.0943606819,9.62659813 0.0564708951,9.71738656 C-0.0188539314,9.89815082 -0.0188084716,10.1018491 0.0565163549,10.2826134 C0.0943606819,10.3734018 0.148989443,10.4552965 0.217991704,10.5236023 L9.54744628,19.7832996 C9.69300152,19.9277665 9.88367892,20 10.0743562,20 C10.2650336,20 10.455711,19.9277666 10.6012662,19.7832996 C10.8923767,19.4943658 10.8923767,19.026293 10.6012662,18.7373591 L2.54332778,10.7396705 L33.2547571,10.7396705 C33.6663146,10.7396705 34,10.4088413 34,10 C34,9.59115852 33.6663146,9.2603293 33.2547571,9.2603293 Z" id="arrow-fwd" transform="translate(17.000000, 10.000000) scale(-1, 1) rotate(-360.000000) translate(-17.000000, -10.000000) "></path>
                </g>
            </g>
        </g>
    </g>
</svg>