<?xml version="1.0" encoding="UTF-8"?>
<svg width="31px" height="31px" viewBox="0 0 31 31" version="1.1" xmlns="http://www.w3.org/2000/svg" xmlns:xlink="http://www.w3.org/1999/xlink">
    <title>9B227335-9D00-49CE-9448-5F608B4E5137</title>
    <g id="GCC-Landing-Page" stroke="none" stroke-width="1" fill="none" fill-rule="evenodd">
        <g id="GCC_LandingPage_Alt" transform="translate(-1178.000000, -5500.000000)" fill="#FFFFFF" fill-rule="nonzero">
            <g id="footer" transform="translate(0.000000, 5390.000000)">
                <g id="footer-1">
                    <g id="Instagram" transform="translate(1178.000000, 110.000000)">
                        <g>
                            <path d="M15.4707976,2.82172819 C19.5915847,2.82172819 20.0847812,2.82172819 21.7136278,2.91275168 C22.6934738,2.92130285 23.6642519,3.1017419 24.5819552,3.44588926 C25.9250492,3.96846439 26.9870969,5.03251682 27.5086875,6.37814597 C27.8521864,7.29758157 28.0322855,8.27019206 28.0408206,9.25188758 C28.1186937,10.8838087 28.1316726,11.3779362 28.1316726,15.5065017 C28.1316726,19.6350671 28.1316726,20.1291946 28.0408206,21.7611158 C28.0322855,22.7428113 27.8521864,23.7154218 27.5086875,24.6348574 C26.9870969,25.9804865 25.9250492,27.044539 24.5819552,27.5671141 C23.6642519,27.9112615 22.6934738,28.0917005 21.7136278,28.1002517 C20.0847812,28.1782718 19.5980741,28.1912752 15.4707976,28.1912752 C11.343521,28.1912752 10.8568139,28.1912752 9.22796734,28.1002517 C8.24812136,28.0917005 7.27734329,27.9112615 6.35963994,27.5671141 C5.02754418,27.0355271 3.97809293,25.96995 3.46535483,24.6283557 C3.12185584,23.7089201 2.94175674,22.7363096 2.93322169,21.7546141 C2.81641197,20.122693 2.81641197,19.6285654 2.81641197,15.5 C2.81641197,11.3714346 2.81641197,10.877307 2.90726397,9.24538591 C2.92409786,8.26214159 3.11299192,7.28948146 3.46535483,6.3716443 C3.98710405,5.04482588 5.03532129,3.99463004 6.35963994,3.47189597 C7.27734329,3.12774861 8.24812136,2.94730956 9.22796734,2.93875839 C10.8568139,2.82172819 11.3500105,2.82172819 15.4707976,2.82172819 M15.4707976,0.0325083893 C11.2786268,0.0325083893 10.752983,0.0325083893 9.1046682,0.123531879 C7.82115996,0.158406892 6.55286268,0.411226093 5.35377852,0.871224832 C3.26110116,1.66990287 1.60835187,3.32577186 0.811178564,5.42239933 C0.360912489,6.62529562 0.117355878,7.89593929 0.0908519992,9.18036913 C0.0194682855,10.8317953 0,11.3584312 0,15.5585151 C0,19.758599 0,20.2852349 0.0908519992,21.9366611 C0.142560948,23.2047099 0.405775435,24.4551411 0.869583421,25.6361158 C1.66675673,27.7327432 3.31950601,29.3886122 5.41218338,30.1872903 C6.61281338,30.6384063 7.88106312,30.8824226 9.16307306,30.9089765 C10.8113879,30.980495 11.3370316,31 15.5292024,31 C19.7213732,31 20.247017,31 21.8953318,30.9089765 C23.1773417,30.8824226 24.4455915,30.6384063 25.6462215,30.1872903 C27.7388988,29.3886122 29.3916481,27.7327432 30.1888214,25.6361158 C30.6390875,24.4332195 30.8826441,23.1625758 30.909148,21.878146 C30.9805317,20.2267198 31,19.7000839 31,15.5 C31,11.2999161 31,10.7732802 30.909148,9.12185403 C30.8826441,7.83742419 30.6390875,6.56678052 30.1888214,5.36388423 C29.3916481,3.26725676 27.7388988,1.61138777 25.6462215,0.812709732 C24.4455915,0.361593742 23.1773417,0.117577397 21.8953318,0.0910234899 C20.247017,0.0195050336 19.7213732,0 15.5292024,0 L15.4707976,0.0325083893 Z" id="Shape"></path>
                            <path d="M14.5001096,9 C11.4666871,9 8.73195492,10.8272896 7.57111438,13.6298066 C6.41027385,16.4323236 7.05193264,19.6581601 9.19688626,21.8031137 C11.3418399,23.9480674 14.5676764,24.5897262 17.3701934,23.4288856 C20.1727104,22.2680451 22,19.5333129 22,16.4998904 C22,12.3578153 18.6421847,9 14.5001096,9 Z M14.5001096,21.3668405 C11.8121673,21.3668405 9.63315946,19.1878327 9.63315946,16.4998904 C9.63315946,13.811948 11.8121673,11.6329402 14.5001096,11.6329402 C17.188052,11.6329402 19.3670598,13.811948 19.3670598,16.4998904 C19.3670598,19.1878327 17.188052,21.3668405 14.5001096,21.3668405 Z" id="Shape"></path>
                            <circle id="Oval" cx="23.5" cy="7.5" r="1.5"></circle>
                        </g>
                    </g>
                </g>
            </g>
        </g>
    </g>
</svg>