<?xml version="1.0" encoding="UTF-8"?>
<svg width="28px" height="25px" viewBox="0 0 28 25" version="1.1" xmlns="http://www.w3.org/2000/svg" xmlns:xlink="http://www.w3.org/1999/xlink">
    <!-- Generator: Sketch 63.1 (92452) - https://sketch.com -->
    <title>Twitter</title>
    <desc>Created with Sketch.</desc>
    <g id="Prototype" stroke="none" stroke-width="1" fill="none" fill-rule="evenodd">
        <g id="BlogDetail" transform="translate(-221.000000, -2161.000000)" fill="#1A1A1A" fill-rule="nonzero">
            <g id="article" transform="translate(70.000000, 987.000000)">
                <g id="icons" transform="translate(97.000000, 1171.000000)">
                    <g id="Twitter" transform="translate(54.078014, 3.000000)">
                        <path d="M27.4822695,2.960281 C26.4528393,3.46850797 25.3621242,3.80389587 24.2453278,3.9556198 C25.4275528,3.16923233 26.3120946,1.92552967 26.7321761,0.459007521 C25.6268305,1.19531723 24.4167761,1.71344842 23.1548074,1.99079516 C21.5723512,0.104312486 19.1223051,-0.509238823 16.973332,0.442802923 C14.8243589,1.39484467 13.4117691,3.71962755 13.4093627,6.30823879 C13.4101178,6.79314442 13.4584917,7.27648555 13.5536114,7.74954108 C9.0221312,7.505296 4.79528736,5.12149543 1.92139319,1.18935352 C0.435659074,4.06412941 1.19228071,7.73677529 3.65237804,9.59156418 C2.756536,9.55984041 1.88032536,9.28954241 1.09629041,8.80304903 L1.09629041,8.88707114 C1.09834252,11.8918425 2.99033026,14.4788185 5.61993082,15.0723908 C4.78978452,15.3219159 3.92021455,15.3594645 3.07538309,15.1822659 C3.8111537,17.7541686 5.92692869,19.5160738 8.33757704,19.5643419 C6.34128812,21.3129284 3.87854931,22.2597916 1.34439824,22.2530493 C0.895068511,22.2524685 0.446159049,22.2222544 0,22.162564 C2.579967,24.0243947 5.58591964,25.0098424 8.65492426,25 C19.0408334,25 24.6896139,15.3826263 24.6896139,7.04504803 C24.6896139,6.76712876 24.6896139,6.49567272 24.6896139,6.22421668 C25.7858838,5.33029794 26.7314921,4.22511166 27.4822695,2.960281 Z" id="Twitter-2"></path>
                    </g>
                </g>
            </g>
        </g>
    </g>
</svg>