<?xml version="1.0" encoding="UTF-8"?>
<svg width="24px" height="31px" viewBox="0 0 24 31" version="1.1" xmlns="http://www.w3.org/2000/svg" xmlns:xlink="http://www.w3.org/1999/xlink">
    <!-- Generator: Sketch 63.1 (92452) - https://sketch.com -->
    <title>Pinterest</title>
    <desc>Created with Sketch.</desc>
    <g id="Prototype" stroke="none" stroke-width="1" fill="none" fill-rule="evenodd">
        <g id="BlogDetail" transform="translate(-705.000000, -2431.000000)" fill="#1A1A1A" fill-rule="nonzero">
            <g id="footer" transform="translate(0.000000, 2312.000000)">
                <g id="social-icons" transform="translate(523.000000, 119.000000)">
                    <g id="Pinterest" transform="translate(182.000000, 0.000000)">
                        <path d="M24,10.2014428 C24,17.1913203 20.089082,22.4092996 14.38566,22.4092996 C12.430201,22.4092996 10.6507333,21.373521 10.0315046,20.1879127 C10.0315046,20.1879127 8.99511135,24.2919414 8.78001086,25.0866898 C8.01086366,27.8813379 5.73601304,30.6825004 5.56653992,30.9170163 C5.50701039,30.9855142 5.41403622,31.0148004 5.32596515,30.9927957 C5.23789408,30.970791 5.16964797,30.9012236 5.14937534,30.812787 C5.10374796,30.4544988 4.49755568,26.9041882 5.20803911,24.0443968 C5.54698533,22.5982153 7.49592613,14.3380432 7.49592613,14.3380432 C7.11026544,13.4482061 6.91701994,12.4869914 6.92884302,11.5173377 C6.92884302,8.87903355 8.46061923,6.9117055 10.3639326,6.9117055 C11.9869636,6.9117055 12.7691472,8.12337112 12.7691472,9.58258133 C12.7691472,11.2111642 11.7327539,13.6475241 11.1982618,15.9014827 C10.9819071,16.7493671 11.1813525,17.6495512 11.7356376,18.3268946 C12.2899226,19.004238 13.1331562,19.3782208 14.0076046,19.3345353 C17.3840304,19.3345353 19.658881,15.002505 19.658881,9.86269758 C19.658881,5.9540988 17.0516024,3.04219271 12.2476915,3.04219271 C6.83758827,3.04219271 3.46768061,7.06804945 3.46768061,11.5694524 C3.41554946,12.8390827 3.83585538,14.0830074 4.6474742,15.0611339 C4.94171211,15.3017212 5.04478084,15.705828 4.90168387,16.0578266 C4.81694731,16.3835432 4.62140141,17.1717773 4.53666486,17.4844652 C4.4926418,17.6722694 4.36760407,17.8309192 4.19522894,17.9176844 C4.02285381,18.0044496 3.82086734,18.0104077 3.64367192,17.933954 C1.160239,16.911204 0,14.1882136 0,11.1264778 C0,6.06484243 4.26941879,0 12.7365562,0 C19.5285171,0 24,4.91832013 24,10.2014428 Z" id="pinterest-2"></path>
                    </g>
                </g>
            </g>
        </g>
    </g>
</svg>