<?xml version="1.0" encoding="UTF-8"?>
<svg width="28px" height="16px" viewBox="0 0 28 16" version="1.1" xmlns="http://www.w3.org/2000/svg" xmlns:xlink="http://www.w3.org/1999/xlink">
    <!-- Generator: Sketch 63.1 (92452) - https://sketch.com -->
    <title>arrow back</title>
    <desc>Created with Sketch.</desc>
    <g id="Prototype" stroke="none" stroke-width="1" fill="none" fill-rule="evenodd">
        <g id="BlogDetail" transform="translate(-70.000000, -229.000000)" fill="#000000" fill-rule="nonzero">
            <g id="back-link" transform="translate(70.000000, 223.000000)">
                <g id="arrow-back" transform="translate(0.000000, 6.000000)">
                    <path d="M26.6958604,7.40826344 L2.04170258,7.40826344 L8.51035908,1.01011267 C8.74405332,0.77896561 8.74405332,0.404507364 8.51035908,0.173360299 C8.27666484,-0.0577867663 7.89808018,-0.0577867663 7.66438594,0.173360299 L0.1749968,7.58111813 C0.119603982,7.63576274 0.0757497516,7.70127851 0.0453330369,7.77390925 C-0.0151353359,7.91852065 -0.0150988422,8.08147932 0.0453695306,8.22609072 C0.0757497516,8.29872146 0.119603982,8.36423723 0.1749968,8.41888184 L7.66438594,15.8266397 C7.78123306,15.9422132 7.9343028,16 8.08737248,16 C8.24044216,16 8.39351196,15.9422133 8.51035902,15.8266397 C8.74405326,15.5954926 8.74405326,15.2210344 8.51035902,14.9898873 L2.04170258,8.59173641 L26.6958604,8.59173641 C27.0262456,8.59173641 27.2941176,8.32707304 27.2941176,8 C27.2941176,7.67292681 27.0262456,7.40826344 26.6958604,7.40826344 Z" id="Path" transform="translate(13.647059, 8.000000) rotate(-360.000000) translate(-13.647059, -8.000000) "></path>
                </g>
            </g>
        </g>
    </g>
</svg>