<?xml version="1.0" encoding="UTF-8"?>
<svg width="30px" height="29px" viewBox="0 0 30 29" version="1.1" xmlns="http://www.w3.org/2000/svg" xmlns:xlink="http://www.w3.org/1999/xlink">
    <!-- Generator: Sketch 63.1 (92452) - https://sketch.com -->
    <title>Snapchat</title>
    <desc>Created with Sketch.</desc>
    <g id="Prototype" stroke="none" stroke-width="1" fill="none" fill-rule="evenodd">
        <g id="BlogDetail" transform="translate(-759.000000, -2432.000000)" fill="#1A1A1A" fill-rule="nonzero">
            <g id="footer" transform="translate(0.000000, 2312.000000)">
                <g id="social-icons" transform="translate(523.000000, 119.000000)">
                    <g id="Snapchat" transform="translate(236.000000, 1.000000)">
                        <g id="Snapchat-2">
                            <path d="M15.1851064,28.6004444 L14.8148936,28.6004444 C13.0468085,28.6004444 11.9170213,27.7884444 10.8255319,27.0086667 C10.1537375,26.4425464 9.36381616,26.037173 8.51489362,25.8228889 C8.11425678,25.7539303 7.70854466,25.7194361 7.30212766,25.7197778 C6.73783438,25.7263002 6.17554788,25.7888984 5.62340426,25.9066667 C5.41395277,25.9571051 5.20022436,25.9873152 4.98510638,25.9968889 C4.78239869,26.0249318 4.59277341,25.8897897 4.55106383,25.6875556 C4.48085106,25.4491111 4.42978723,25.2171111 4.38510638,24.9915556 C4.25744681,24.4115556 4.16808511,24.0571111 3.92553191,24.0184444 C1.13617021,23.5866667 0.331914894,22.9873333 0.153191489,22.5684444 C0.129733885,22.5107941 0.114683553,22.4500131 0.108452285,22.388 C0.105509975,22.2254226 0.218541643,22.084131 0.376595745,22.0528889 C4.67234043,21.344 6.6,16.8973333 6.67659574,16.7168889 L6.67659574,16.7168889 C6.93201871,16.2998821 6.99049556,15.7897769 6.83617021,15.3248889 C6.53617021,14.6288889 5.55957447,14.3195556 4.9212766,14.1133333 L4.5,13.9715556 C3.22340426,13.4624444 3.12765957,12.9404444 3.17234043,12.6826667 C3.36135346,12.2029141 3.82942671,11.8956076 4.34042553,11.9157778 C4.46107186,11.9143323 4.58067417,11.9384831 4.69148936,11.9866667 C5.16684909,12.2327579 5.68961554,12.3713055 6.22340426,12.3926667 C6.55482623,12.4223565 6.88405034,12.3154324 7.13617021,12.0962222 C7.13617021,11.8062222 7.13617021,11.4968889 7.0787234,11.1811111 C6.95106383,9.13177778 6.79148936,6.57977778 7.43617021,5.12977778 C8.68681269,2.22442131 11.5434902,0.361770595 14.6808511,0.406 L15.3191489,0.406 C18.4463363,0.367124997 21.2936715,2.21934954 22.5510638,5.11044444 C23.1893617,6.56688889 23.0361702,9.11888889 22.9085106,11.1682222 L22.9085106,11.2584444 C22.9085106,11.542 22.8702128,11.8191111 22.8574468,12.0833333 C23.0921658,12.2797893 23.3887744,12.3849449 23.693617,12.3797778 L23.693617,12.3797778 C24.1957898,12.3390009 24.6855219,12.2011681 25.1361702,11.9737778 C25.2774915,11.913378 25.4295192,11.8826797 25.5829787,11.8835556 C25.7602669,11.884202 25.9357838,11.9192058 26.1,11.9866667 L26.1,11.9866667 C26.4685376,12.0774387 26.7475506,12.381979 26.8085106,12.76 C26.8085106,13.0628889 26.5914894,13.514 25.4744681,13.9586667 L25.0531915,14.1004444 C24.4148936,14.3066667 23.4574468,14.616 23.1382979,15.312 C22.978382,15.7755308 23.0346937,16.2872164 23.2914894,16.704 L23.2914894,16.704 C23.3680851,16.8908889 25.2957447,21.3246667 29.5914894,22.04 C29.7510055,22.0687695 29.8652769,22.2116108 29.8597788,22.3751111 C29.8534016,22.4371242 29.8383512,22.4979052 29.8148936,22.5555556 C29.6361702,22.9744444 28.8382979,23.5673333 26.0425532,24.0055556 C25.812766,24.0055556 25.7234043,24.3406667 25.5893617,24.9722222 C25.5382979,25.1977778 25.487234,25.4233333 25.4170213,25.6617778 C25.3815011,25.853029 25.2065904,25.9847745 25.0148936,25.9646667 L25.0148936,25.9646667 C24.8002717,25.958125 24.5866572,25.9322444 24.3765957,25.8873333 C23.8247814,25.768267 23.262147,25.70779 22.6978723,25.7068889 C22.2914553,25.7065472 21.8857432,25.7410414 21.4851064,25.81 C20.6377345,26.0232877 19.84968,26.4288233 19.1808511,26.9957778 C18.0829787,27.7884444 16.9531915,28.6004444 15.1851064,28.6004444 Z" id="Path"></path>
                        </g>
                    </g>
                </g>
            </g>
        </g>
    </g>
</svg>