<?xml version="1.0" encoding="UTF-8"?>
<svg width="24px" height="24px" viewBox="0 0 24 24" version="1.1" xmlns="http://www.w3.org/2000/svg" xmlns:xlink="http://www.w3.org/1999/xlink">
    <!-- Generator: Sketch 63.1 (92452) - https://sketch.com -->
    <title>search</title>
    <desc>Created with Sketch.</desc>
    <g id="Prototype" stroke="none" stroke-width="1" fill="none" fill-rule="evenodd">
        <g id="BlogDetail" transform="translate(-1355.000000, -68.000000)" fill="#000000">
            <g id="search-form" transform="translate(1023.000000, 50.000000)">
                <g id="search" transform="translate(332.000000, 18.000000)">
                    <g id="search-icon">
                        <g id="Group" fill-rule="nonzero">
                            <path d="M9.76744186,0.279069767 C15.007725,0.279069767 19.255814,4.52715868 19.255814,9.76744186 C19.255814,12.0861559 18.4240914,14.2106107 17.0427104,15.8587423 L23.2082654,22.0242726 C23.5352159,22.3512232 23.5352159,22.8813148 23.2082654,23.2082654 C22.8813148,23.5352159 22.3512232,23.5352159 22.0242726,23.2082654 L15.8587423,17.0427104 C14.2106107,18.4240914 12.0861559,19.255814 9.76744186,19.255814 C4.52715868,19.255814 0.279069767,15.007725 0.279069767,9.76744186 C0.279069767,4.52715868 4.52715868,0.279069767 9.76744186,0.279069767 Z M9.76744186,1.95348837 C5.45191451,1.95348837 1.95348837,5.45191451 1.95348837,9.76744186 C1.95348837,14.0829692 5.45191451,17.5813953 9.76744186,17.5813953 C14.0829692,17.5813953 17.5813953,14.0829692 17.5813953,9.76744186 C17.5813953,5.45191451 14.0829692,1.95348837 9.76744186,1.95348837 Z" id="Shape"></path>
                        </g>
                    </g>
                </g>
            </g>
        </g>
    </g>
</svg>