<?xml version="1.0" encoding="UTF-8"?>
<svg width="238px" height="34px" viewBox="0 0 238 34" version="1.1" xmlns="http://www.w3.org/2000/svg" xmlns:xlink="http://www.w3.org/1999/xlink">
    <!-- Generator: Sketch 63.1 (92452) - https://sketch.com -->
    <title>underline slanted</title>
    <desc>Created with Sketch.</desc>
    <g id="Prototype" stroke="none" stroke-width="1" fill="none" fill-rule="evenodd">
        <g id="BlogLanding" transform="translate(-604.000000, -3532.000000)" stroke="#1A1A1A">
            <g id="pre-footer-module" transform="translate(0.000000, 3059.000000)">
                <g id="moe-logo" transform="translate(603.000000, 414.000000)">
                    <g id="underline-slanted" transform="translate(0.000000, 50.481337)">
                        <path d="M0,27 C49.4877731,26.0498171 98.9142239,24.7075609 148.463319,24.1494513 C216.105964,23.38754 263.154989,28.4919877 150.005385,25.44527 C125.285452,24.7796499 101.244831,22.4891299 76.5973751,21.599492 C60.491977,21.0181756 44.0849659,21.655026 27.991939,21.0412543 C15.6453553,20.5703682 52.8958718,21.4348487 65.3050804,21.1688154 C90.8150735,20.6219227 116.065492,19.1570566 141.574615,18.6062264 C155.675824,18.3017326 169.937156,18.1019614 183.979407,18.6062264 C191.389407,18.8723236 211.50913,19.6836852 205.127163,20.8884336 C195.647672,22.6779138 182.912582,21.236584 171.889771,20.8884336 C145.523223,20.0556582 -96.5639885,9.53940656 152.753582,18.771677 C181.770268,19.8461696 210.251194,22.0343786 239,23.6657294" id="underline" transform="translate(119.500000, 21.000000) rotate(-7.000000) translate(-119.500000, -21.000000) "></path>
                    </g>
                </g>
            </g>
        </g>
    </g>
</svg>