<?xml version="1.0" encoding="UTF-8"?>
<svg width="432px" height="58px" viewBox="0 0 432 58" version="1.1" xmlns="http://www.w3.org/2000/svg" xmlns:xlink="http://www.w3.org/1999/xlink">
    <!-- Generator: Sketch 63.1 (92452) - https://sketch.com -->
    <title>logo</title>
    <desc>Created with Sketch.</desc>
    <g id="Lading-Page" stroke="none" stroke-width="1" fill="none" fill-rule="evenodd">
        <g id="GCC_LandingPage" transform="translate(-504.000000, -156.000000)" fill="#000000">
            <g id="about" transform="translate(-100.000000, 70.000000)">
                <g id="GCC-Logo-Full" transform="translate(604.000000, 86.000000)">
                    <g id="logo">
                        <path d="M122.806829,57.9317073 C127.574634,57.9317073 130.419512,54.902439 131.262439,51.7414634 L128.364878,50.7931707 C127.732683,52.9004878 125.941463,54.902439 122.806829,54.902439 C119.619512,54.902439 116.616585,52.5843902 116.616585,48.2117073 C116.616585,43.6809756 119.698537,41.4419512 122.780488,41.4419512 C125.915122,41.4419512 127.653659,43.2595122 128.206829,45.524878 L131.183415,44.5239024 C130.340488,41.257561 127.521951,38.4653659 122.780488,38.4653659 C117.933659,38.4653659 113.376585,42.1268293 113.376585,48.2117073 C113.376585,54.2965854 117.77561,57.9317073 122.806829,57.9317073 Z M147.005854,57.9317073 C151.905366,57.9317073 156.515122,54.3229268 156.515122,48.1853659 C156.515122,42.0741463 151.905366,38.4653659 147.005854,38.4653659 C142.106341,38.4653659 137.522927,42.0741463 137.522927,48.1853659 C137.522927,54.3229268 142.106341,57.9317073 147.005854,57.9317073 Z M147.005854,54.9287805 C143.87122,54.9287805 140.762927,52.6897561 140.762927,48.1853659 C140.762927,43.6809756 143.87122,41.4419512 147.005854,41.4419512 C150.166829,41.4419512 153.275122,43.6809756 153.275122,48.1853659 C153.275122,52.6897561 150.166829,54.9287805 147.005854,54.9287805 Z M167.332683,57.5365854 L167.332683,43.8390244 L173.101463,57.5365854 L175.840976,57.5365854 L181.662439,43.7863415 L181.662439,57.5365854 L184.797073,57.5365854 L184.797073,38.8604878 L180.503415,38.8604878 L174.523902,53.1112195 L168.465366,38.8604878 L164.250732,38.8604878 L164.250732,57.5365854 L167.332683,57.5365854 Z M196.747317,57.5365854 L196.747317,43.8390244 L202.516098,57.5365854 L205.25561,57.5365854 L211.077073,43.7863415 L211.077073,57.5365854 L214.211707,57.5365854 L214.211707,38.8604878 L209.918049,38.8604878 L203.938537,53.1112195 L197.88,38.8604878 L193.665366,38.8604878 L193.665366,57.5365854 L196.747317,57.5365854 Z M229.823415,57.9317073 C233.748293,57.9317073 236.803902,55.5346341 236.803902,51.0302439 L236.803902,38.8604878 L233.642927,38.8604878 L233.642927,50.8458537 C233.642927,53.48 232.220488,54.9287805 229.823415,54.9287805 C227.452683,54.9287805 226.003902,53.48 226.003902,50.8458537 L226.003902,38.8604878 L222.869268,38.8604878 L222.869268,51.0302439 C222.869268,55.5346341 225.924878,57.9317073 229.823415,57.9317073 Z M248.622439,57.5365854 L248.622439,43.3912195 L257.841951,57.5365854 L261.134634,57.5365854 L261.134634,38.8604878 L257.973659,38.8604878 L257.973659,52.1102439 L249.491707,38.8604878 L245.461463,38.8604878 L245.461463,57.5365854 L248.622439,57.5365854 Z M273.216585,57.5365854 L273.216585,38.8604878 L270.002927,38.8604878 L270.002927,57.5365854 L273.216585,57.5365854 Z M289.407805,57.5365854 L289.407805,41.8370732 L295.492683,41.8370732 L295.492683,38.8604878 L280.188293,38.8604878 L280.188293,41.8370732 L286.246829,41.8370732 L286.246829,57.5365854 L289.407805,57.5365854 Z M310.709268,57.5365854 L310.709268,49.6341463 L317.294634,38.8604878 L313.738537,38.8604878 L309.234146,46.6839024 L304.756098,38.8604878 L301.01561,38.8604878 L307.548293,49.6341463 L307.548293,57.5365854 L310.709268,57.5365854 Z M333.740488,56.6673171 L344.856585,51.1092683 L344.856585,48.6331707 L333.740488,43.0487805 L333.740488,45.9990244 L341.748293,49.8712195 L333.740488,53.7697561 L333.740488,56.6673171 Z" id="COMMUNITY&gt;" fill-rule="nonzero"></path>
                        <path d="M264.405366,19.8829268 C269.173171,19.8829268 272.018049,16.8536585 272.860976,13.6926829 L269.963415,12.7443902 C269.33122,14.8517073 267.54,16.8536585 264.405366,16.8536585 C261.218049,16.8536585 258.215122,14.5356098 258.215122,10.1629268 C258.215122,5.63219512 261.297073,3.39317073 264.379024,3.39317073 C267.513659,3.39317073 269.252195,5.21073171 269.805366,7.47609756 L272.781951,6.47512195 C271.939024,3.20878049 269.120488,0.416585366 264.379024,0.416585366 C259.532195,0.416585366 254.975122,4.07804878 254.975122,10.1629268 C254.975122,16.2478049 259.374146,19.8829268 264.405366,19.8829268 Z M283.652195,19.4878049 L283.652195,12.1121951 L285.970244,12.1121951 L289.895122,19.4878049 L293.477561,19.4878049 L289.262927,11.7960976 C291.870732,11.1639024 293.477561,9.13560976 293.477561,6.47512195 C293.477561,3.31414634 291.238537,0.811707317 287.629756,0.811707317 L280.464878,0.811707317 L280.464878,19.4878049 L283.652195,19.4878049 Z M287.050244,9.32 L283.652195,9.32 L283.652195,3.60390244 L287.050244,3.60390244 C288.999512,3.60390244 290.263902,4.73658537 290.263902,6.47512195 C290.263902,8.18731707 288.999512,9.32 287.050244,9.32 Z M312.777073,19.4878049 L312.777073,16.537561 L304.400488,16.537561 L304.400488,11.5853659 L311.986829,11.5853659 L311.986829,8.71414634 L304.400488,8.71414634 L304.400488,3.76195122 L312.777073,3.76195122 L312.777073,0.811707317 L301.239512,0.811707317 L301.239512,19.4878049 L312.777073,19.4878049 Z M322.330244,19.4878049 L324.06878,14.7990244 L331.97122,14.7990244 L333.736098,19.4878049 L337.186829,19.4878049 L329.916585,0.811707317 L326.255122,0.811707317 L318.984878,19.4878049 L322.330244,19.4878049 Z M330.864878,11.875122 L325.175122,11.875122 L328.02,4.23609756 L330.864878,11.875122 Z M349.690244,19.4878049 L349.690244,3.78829268 L355.775122,3.78829268 L355.775122,0.811707317 L340.470732,0.811707317 L340.470732,3.78829268 L346.529268,3.78829268 L346.529268,19.4878049 L349.690244,19.4878049 Z M370.517561,19.8829268 C375.417073,19.8829268 380.026829,16.2741463 380.026829,10.1365854 C380.026829,4.02536585 375.417073,0.416585366 370.517561,0.416585366 C365.618049,0.416585366 361.034634,4.02536585 361.034634,10.1365854 C361.034634,16.2741463 365.618049,19.8829268 370.517561,19.8829268 Z M370.517561,16.88 C367.382927,16.88 364.274634,14.6409756 364.274634,10.1365854 C364.274634,5.63219512 367.382927,3.39317073 370.517561,3.39317073 C373.678537,3.39317073 376.786829,5.63219512 376.786829,10.1365854 C376.786829,14.6409756 373.678537,16.88 370.517561,16.88 Z M390.949756,19.4878049 L390.949756,12.1121951 L393.267805,12.1121951 L397.192683,19.4878049 L400.775122,19.4878049 L396.560488,11.7960976 C399.168293,11.1639024 400.775122,9.13560976 400.775122,6.47512195 C400.775122,3.31414634 398.536098,0.811707317 394.927317,0.811707317 L387.762439,0.811707317 L387.762439,19.4878049 L390.949756,19.4878049 Z M394.347805,9.32 L390.949756,9.32 L390.949756,3.60390244 L394.347805,3.60390244 C396.297073,3.60390244 397.561463,4.73658537 397.561463,6.47512195 C397.561463,8.18731707 396.297073,9.32 394.347805,9.32 Z M407.509756,7.9502439 C409.116585,7.79219512 411.408293,6.47512195 411.408293,3.05073171 C411.408293,1.60195122 410.486341,0.60097561 409.221951,0.60097561 C408.089268,0.60097561 407.272683,1.44390244 407.272683,2.39219512 C407.272683,3.47219512 408.010244,4.2097561 409.063902,4.2097561 C409.327317,4.2097561 409.56439,4.10439024 409.617073,4.07804878 C409.56439,5.26341463 408.589756,6.29073171 407.509756,6.50146341 L407.509756,7.9502439 Z M424.807317,19.8829268 C429.074634,19.8829268 431.419024,17.1170732 431.419024,14.2195122 C431.419024,11.5853659 429.654146,9.50439024 426.361463,8.84585366 L423.674634,8.29268293 C422.225854,7.97658537 421.488293,7.08097561 421.488293,5.89560976 C421.488293,4.47317073 422.805366,3.20878049 424.701951,3.20878049 C427.20439,3.20878049 428.179024,4.92097561 428.363415,6.08 L431.208293,5.18439024 C430.786829,3.10341463 429.074634,0.416585366 424.67561,0.416585366 C421.198537,0.416585366 418.327317,2.99804878 418.327317,6.13268293 C418.327317,8.92487805 420.223902,10.795122 423.06878,11.3746341 L425.702927,11.9278049 C427.309756,12.2702439 428.205366,13.244878 428.205366,14.4565854 C428.205366,15.9053659 427.046341,17.0380488 424.807317,17.0380488 C422.120488,17.0380488 420.72439,15.2468293 420.54,13.297561 L417.589756,14.1404878 C417.879512,16.8273171 420.065854,19.8829268 424.807317,19.8829268 Z" id="CREATOR’S" fill-rule="nonzero"></path>
                        <path d="M126.892578,19.7050305 C127.978706,19.7050305 128.9879,19.6145198 129.92016,19.4334985 C130.85242,19.2524771 131.49052,19.098609 131.834461,18.9718941 C132.178401,18.8451791 132.712414,18.6189024 133.4365,18.293064 C133.943359,18.0758384 134.196789,17.7952553 134.196789,17.4513148 L134.196789,17.4513148 L134.196789,16.7181784 C134.196789,16.5009527 134.242045,16.1027058 134.332555,15.5234375 C134.477372,14.6183308 134.604087,13.8580412 134.7127,13.2425686 C134.767006,12.9710366 134.920875,12.753811 135.174304,12.5908918 C135.699266,12.2831555 136.206126,12.1292873 136.694884,12.1292873 C136.821599,12.1292873 136.884956,11.8577553 136.884956,11.3146913 C135.165253,11.405202 134.124381,11.4504573 133.762338,11.4504573 L133.694243,11.449927 C133.301794,11.4446236 132.129752,11.3995451 130.178115,11.3146913 C130.051401,11.4414062 129.988043,11.6586319 129.988043,11.9663681 C129.988043,12.0749809 130.006145,12.1292873 130.042349,12.1292873 C130.277677,12.1292873 130.648771,12.1971704 131.155631,12.3329364 C131.66249,12.4687024 131.91592,12.6451982 131.91592,12.8624238 C131.91592,13.1701601 131.879716,13.5412538 131.807308,13.975705 C131.698695,14.645484 131.499571,15.722561 131.209937,17.206936 C131.173733,17.4422637 131.083222,17.614234 130.938405,17.7228468 C130.377239,18.1391959 129.481183,18.3473704 128.250238,18.3473704 C126.747761,18.3473704 125.59375,17.7726277 124.788205,16.6231421 C123.98266,15.4736566 123.579888,14.0752668 123.579888,12.4279726 C123.579888,11.8668064 123.661347,11.1970274 123.824266,10.4186357 C123.987186,9.6402439 124.254192,8.79396913 124.625286,7.87981136 C124.99638,6.96565358 125.439882,6.12842988 125.955793,5.36814024 C126.471704,4.60785061 127.132431,3.97427591 127.937976,3.46741616 C128.743521,2.9605564 129.616949,2.70712652 130.55826,2.70712652 C131.300448,2.70712652 131.952125,2.8112138 132.513291,3.01938834 C133.074457,3.22756288 133.499857,3.46741616 133.789491,3.73894817 C134.079125,4.01048018 134.314453,4.34084413 134.495474,4.73004002 C134.676496,5.1192359 134.789634,5.44054878 134.834889,5.69397866 C134.880145,5.94740854 134.902772,6.20083841 134.902772,6.45426829 C135.011385,6.5628811 135.192407,6.6171875 135.445837,6.6171875 C135.771675,6.6171875 135.952696,6.5357279 135.988901,6.37280869 C136.007003,6.28229802 136.038681,6.01529154 136.083937,5.57178925 C136.129192,5.12828697 136.183498,4.58522294 136.246856,3.94259718 C136.310213,3.29997142 136.369045,2.77953506 136.423352,2.38128811 C134.160585,1.71150915 132.259861,1.37661966 130.721179,1.37661966 C128.965272,1.37661966 127.281774,1.90158155 125.670684,2.95150534 C124.059594,4.00142912 122.778868,5.36814024 121.828506,7.05163872 C120.878144,8.7351372 120.402963,10.4729421 120.402963,12.2650534 C120.402963,14.3105945 121.009385,16.061976 122.222228,17.5191978 C123.435071,18.9764196 124.991854,19.7050305 126.892578,19.7050305 Z M153.547971,19.5692645 C153.71089,19.098609 154.462128,17.5689787 155.801686,14.9803735 C155.729278,14.8717607 155.512052,14.8174543 155.15001,14.8174543 C154.950886,14.8174543 154.824171,14.8717607 154.769865,14.9803735 C154.444026,15.6139482 154.063881,16.1705888 153.62943,16.6502954 C153.194979,17.1300019 152.832936,17.4422637 152.543302,17.5870808 C151.783013,17.9672256 150.74214,18.157298 149.420684,18.157298 L149.420684,18.157298 L148.470322,18.157298 C147.69193,18.157298 147.221275,18.1210937 147.058356,18.0486852 C146.895436,17.9762767 146.813977,17.7862043 146.813977,17.478468 C146.813977,16.9716082 146.886385,16.3832889 147.031202,15.7135099 L147.031202,15.7135099 L149.013386,5.39529345 C149.158203,4.49018674 149.393531,3.68464177 149.719369,2.97865854 C149.791778,2.8519436 150.045208,2.71165206 150.479659,2.55778392 C150.91411,2.40391578 151.203744,2.32698171 151.348561,2.32698171 C151.402868,2.32698171 151.452649,2.24099657 151.497904,2.0690263 C151.543159,1.89705602 151.565787,1.74771341 151.565787,1.62099848 L151.565787,1.62099848 L151.565787,1.51238567 C150.190025,1.58479421 149.121999,1.62099848 148.361709,1.62099848 C147.529011,1.62099848 146.451934,1.58479421 145.130478,1.51238567 C145.021865,1.62099848 144.967559,1.85632622 144.967559,2.2183689 C144.967559,2.29077744 144.97661,2.32698171 144.994712,2.32698171 C145.175734,2.32698171 145.460842,2.42201791 145.850038,2.61209032 C146.239234,2.80216273 146.442883,2.96960747 146.460985,3.11442454 C146.497189,3.54887576 146.406679,4.31821646 146.189453,5.42244665 L146.189453,5.42244665 L144.180116,15.7406631 C143.999095,16.7543826 143.781869,17.5327744 143.528439,18.0758384 C143.456031,18.2206555 143.198075,18.3699981 142.754573,18.5238662 C142.311071,18.6777344 141.998809,18.7546684 141.817788,18.7546684 C141.691073,18.7546684 141.627715,18.9447409 141.627715,19.3248857 C141.627715,19.4516006 141.645817,19.5330602 141.682022,19.5692645 L141.682022,19.5692645 L144.967559,19.4334985 C145.673542,19.4334985 147.040253,19.4561261 149.067692,19.5013815 C151.095131,19.5466368 152.588558,19.5692645 153.547971,19.5692645 Z M167.984423,19.7593369 C169.704125,19.7593369 171.346894,19.234375 172.912729,18.1844512 C174.478563,17.1345274 175.741187,15.7406631 176.7006,14.0028582 C177.660013,12.2650534 178.13972,10.4367378 178.13972,8.51791159 C178.13972,6.49047256 177.524247,4.79339748 176.293302,3.42668636 C175.062357,2.05997523 173.505574,1.37661966 171.622952,1.37661966 C169.975657,1.37661966 168.373619,1.89253049 166.816835,2.92435213 C165.260051,3.95617378 163.988377,5.33646151 163.00181,7.06521532 C162.015244,8.79396913 161.521961,10.599657 161.521961,12.482279 C161.521961,14.5821265 162.119331,16.3199314 163.314072,17.6956936 C164.508813,19.0714558 166.065596,19.7593369 167.984423,19.7593369 Z M168.690406,18.4016768 C167.387052,18.4016768 166.400486,17.8586128 165.730707,16.7724848 C165.060928,15.6863567 164.726038,14.3105945 164.726038,12.6451982 C164.726038,9.98418445 165.341511,7.66258575 166.572456,5.68040206 C167.803401,3.69821837 169.269674,2.70712652 170.971275,2.70712652 C172.292731,2.70712652 173.283822,3.22303735 173.94455,4.25485899 C174.605278,5.28668064 174.935642,6.60813643 174.935642,8.21922637 C174.935642,9.64929497 174.700314,11.1246189 174.229659,12.6451982 C173.759003,14.1657774 173.030393,15.5053354 172.043826,16.663872 C171.05726,17.8224085 169.939453,18.4016768 168.690406,18.4016768 Z M183.099705,19.5692645 C184.765101,19.4968559 185.796923,19.4606517 186.19517,19.4606517 L186.247227,19.4612944 C186.422785,19.4636508 187.039008,19.4724877 188.095894,19.4878049 L188.095894,19.4878049 L189.996618,19.4878049 C192.186976,19.4878049 193.974562,18.8994855 195.359375,17.7228468 C196.744188,16.5462081 197.436595,15.1342416 197.436595,13.4869474 C197.436595,12.5094322 197.151486,11.6857851 196.581269,11.0160061 C196.011052,10.3462271 195.472513,9.96608232 194.965654,9.87557165 L194.965654,9.87557165 L195.074266,9.82126524 C195.146675,9.78506098 195.246237,9.73075457 195.372952,9.65834604 C195.499667,9.5859375 195.639958,9.49542683 195.793826,9.38681402 C195.947694,9.27820122 196.115139,9.15148628 196.29616,9.00666921 C196.477182,8.86185213 196.658203,8.69893293 196.839224,8.51791159 C197.020246,8.33689024 197.192216,8.1287157 197.355135,7.89338796 C197.518054,7.65806021 197.662872,7.40915587 197.789587,7.14667492 C197.916301,6.88419398 198.015863,6.59455983 198.088272,6.27777248 C198.16068,5.96098514 198.196885,5.63062119 198.196885,5.28668064 C198.196885,4.03763338 197.717178,3.10989901 196.757765,2.50347752 C195.798352,1.89705602 194.721275,1.59384527 193.526534,1.59384527 C193.273104,1.59384527 192.829602,1.60289634 192.196027,1.62099848 C191.562452,1.63910061 190.756907,1.64815168 189.779392,1.64815168 C188.65706,1.64815168 187.589034,1.60289634 186.575314,1.51238567 C186.430497,1.65720274 186.358089,1.87442835 186.358089,2.1640625 C186.358089,2.25457317 186.376191,2.30887957 186.412395,2.32698171 C186.448599,2.34508384 186.602468,2.40391578 186.874,2.50347752 C187.145532,2.60303925 187.380859,2.70712652 187.579983,2.81573933 C187.779106,2.92435213 187.878668,3.02391387 187.878668,3.11442454 C187.878668,3.6755907 187.788157,4.4449314 187.607136,5.42244665 L187.607136,5.42244665 L185.624952,15.6320503 C185.407727,16.7724848 185.172399,17.5870808 184.918969,18.0758384 C184.828458,18.2387576 184.570503,18.3926258 184.145103,18.5374428 C183.719703,18.6822599 183.407441,18.7546684 183.208317,18.7546684 C183.099705,18.7546684 183.045398,18.9447409 183.045398,19.3248857 C183.045398,19.4516006 183.0635,19.5330602 183.099705,19.5692645 Z M191.191359,9.38681402 C190.195741,9.38681402 189.725086,9.26009909 189.779392,9.00666921 L189.779392,9.00666921 L190.919827,3.30449695 C190.992235,3.03296494 191.598657,2.89719893 192.739091,2.89719893 C194.332079,2.89719893 195.128573,3.69369284 195.128573,5.28668064 C195.128573,8.0201029 193.816168,9.38681402 191.191359,9.38681402 Z M189.942311,18.1844512 C189.236328,18.1844512 188.761147,18.148247 188.516768,18.0758384 C188.272389,18.0034299 188.1502,17.8405107 188.1502,17.5870808 C188.1502,17.3879573 188.177353,17.1526296 188.23166,16.8810976 L188.23166,16.8810976 L189.344941,11.1246189 C189.399247,10.8530869 190.005669,10.7173209 191.164205,10.7173209 C193.264053,10.7173209 194.313977,11.676734 194.313977,13.5955602 C194.313977,14.6816883 194.069598,15.595846 193.58084,16.3380335 C193.092083,17.080221 192.530917,17.5961319 191.897342,17.885766 C191.480993,18.0848895 190.829316,18.1844512 189.942311,18.1844512 Z M219.801782,19.5692645 C219.87419,19.4244474 219.910394,19.2072218 219.910394,18.9175877 C219.910394,18.8089748 219.892292,18.7546684 219.856088,18.7546684 C219.675067,18.7546684 219.399009,18.6596322 219.027915,18.4695598 C218.656822,18.2794874 218.444122,18.0486852 218.389815,17.7771532 C218.190692,16.7453316 218.063977,16.0846037 218.00967,15.7949695 L218.00967,15.7949695 L215.457269,1.56669207 C215.384861,1.49428354 215.29435,1.45807927 215.185737,1.45807927 C214.805593,1.45807927 214.334937,1.94683689 213.773771,2.92435213 L213.773771,2.92435213 L206.252334,15.7949695 C205.600657,16.8991997 205.148104,17.6051829 204.894674,17.9129192 C204.749857,18.1120427 204.437595,18.3021151 203.957889,18.4831364 C203.478182,18.6641578 203.138767,18.7546684 202.939644,18.7546684 C202.831031,18.7546684 202.776724,18.962843 202.776724,19.3791921 C202.776724,19.4334985 202.794827,19.4968559 202.831031,19.5692645 C203.066359,19.5511623 203.505335,19.5194836 204.147961,19.4742283 C204.790587,19.4289729 205.338176,19.4063453 205.79073,19.4063453 C206.225181,19.4063453 206.700362,19.4289729 207.216273,19.4742283 C207.732184,19.5194836 208.089701,19.5511623 208.288824,19.5692645 C208.397437,19.3520389 208.451744,19.1257622 208.451744,18.8904345 C208.451744,18.7999238 208.433641,18.7546684 208.397437,18.7546684 C208.180212,18.7546684 207.854373,18.6777344 207.419922,18.5238662 C206.985471,18.3699981 206.768245,18.148247 206.768245,17.8586128 C206.768245,17.5146723 207.048828,16.8720465 207.609994,15.9307355 C207.736709,15.7135099 208.003716,15.2790587 208.411014,14.6273819 C208.818312,13.975705 209.067216,13.568407 209.157727,13.4054878 C209.193931,13.3330793 209.248237,13.296875 209.320646,13.296875 C210.352468,13.2425686 211.203268,13.2154154 211.873047,13.2154154 C213.248809,13.2154154 214.099609,13.2425686 214.425448,13.296875 C214.515958,13.296875 214.561214,13.3421303 214.561214,13.432641 C214.923256,15.858327 215.104278,17.1526296 215.104278,17.3155488 C215.104278,17.6413872 215.049971,17.9129192 214.941359,18.1301448 C214.850848,18.2749619 214.624571,18.4152534 214.262529,18.5510194 C213.900486,18.6867854 213.628954,18.7546684 213.447933,18.7546684 C213.33932,18.7546684 213.285013,18.9718941 213.285013,19.4063453 C213.285013,19.4968559 213.294064,19.5511623 213.312167,19.5692645 C215.37581,19.4606517 216.507193,19.4063453 216.706317,19.4063453 L216.726047,19.406909 C216.885396,19.4129222 217.910641,19.4670407 219.801782,19.5692645 Z M212.198885,11.7491425 C211.438596,11.7491425 210.786919,11.7219893 210.243855,11.6676829 L210.243855,11.6676829 L210.243855,11.6133765 L213.366473,6.12842988 C213.402677,6.38185976 213.547494,7.25981326 213.800924,8.7622904 C214.054354,10.2647675 214.208222,11.1970274 214.262529,11.5590701 C214.262529,11.6314787 214.226324,11.6676829 214.153916,11.6676829 C213.375524,11.7219893 212.723847,11.7491425 212.198885,11.7491425 Z M237.035013,19.5692645 C237.197933,19.098609 237.949171,17.5689787 239.288729,14.9803735 C239.216321,14.8717607 238.999095,14.8174543 238.637052,14.8174543 C238.437929,14.8174543 238.311214,14.8717607 238.256907,14.9803735 C237.931069,15.6139482 237.550924,16.1705888 237.116473,16.6502954 C236.682022,17.1300019 236.319979,17.4422637 236.030345,17.5870808 C235.270055,17.9672256 234.229183,18.157298 232.907727,18.157298 L232.907727,18.157298 L231.957365,18.157298 C231.178973,18.157298 230.708317,18.1210937 230.545398,18.0486852 C230.382479,17.9762767 230.301019,17.7862043 230.301019,17.478468 C230.301019,16.9716082 230.373428,16.3832889 230.518245,15.7135099 L230.518245,15.7135099 L232.500429,5.39529345 C232.645246,4.49018674 232.880574,3.68464177 233.206412,2.97865854 C233.278821,2.8519436 233.53225,2.71165206 233.966702,2.55778392 C234.401153,2.40391578 234.690787,2.32698171 234.835604,2.32698171 C234.88991,2.32698171 234.939691,2.24099657 234.984947,2.0690263 C235.030202,1.89705602 235.05283,1.74771341 235.05283,1.62099848 L235.05283,1.62099848 L235.05283,1.51238567 C233.677067,1.58479421 232.609042,1.62099848 231.848752,1.62099848 C231.016054,1.62099848 229.938977,1.58479421 228.617521,1.51238567 C228.508908,1.62099848 228.454602,1.85632622 228.454602,2.2183689 C228.454602,2.29077744 228.463653,2.32698171 228.481755,2.32698171 C228.662776,2.32698171 228.947885,2.42201791 229.337081,2.61209032 C229.726277,2.80216273 229.929926,2.96960747 229.948028,3.11442454 C229.984232,3.54887576 229.893721,4.31821646 229.676496,5.42244665 L229.676496,5.42244665 L227.667159,15.7406631 C227.486138,16.7543826 227.268912,17.5327744 227.015482,18.0758384 C226.943074,18.2206555 226.685118,18.3699981 226.241616,18.5238662 C225.798114,18.6777344 225.485852,18.7546684 225.30483,18.7546684 C225.178115,18.7546684 225.114758,18.9447409 225.114758,19.3248857 C225.114758,19.4516006 225.13286,19.5330602 225.169064,19.5692645 L225.169064,19.5692645 L228.454602,19.4334985 C229.160585,19.4334985 230.527296,19.4561261 232.554735,19.5013815 C234.582174,19.5466368 236.0756,19.5692645 237.035013,19.5692645 Z" id="GLOBAL" fill-rule="nonzero"></path>
                        <path d="M11.3941463,18.6185366 L11.3941463,15.6946341 L3.43902439,11.7960976 L11.3941463,7.92390244 L11.3941463,5 L0.27804878,10.5843902 L0.27804878,13.0604878 L11.3941463,18.6185366 Z M30.395122,19.6195122 L39.5882927,0.68 L36.7697561,0.68 L27.5765854,19.6195122 L30.395122,19.6195122 Z M54.4097561,19.4878049 L54.4097561,3.78829268 L60.4946341,3.78829268 L60.4946341,0.811707317 L45.1902439,0.811707317 L45.1902439,3.78829268 L51.2487805,3.78829268 L51.2487805,19.4878049 L54.4097561,19.4878049 Z M70.6273171,19.4878049 L70.6273171,11.5063415 L79.3990244,11.5063415 L79.3990244,19.4878049 L82.5863415,19.4878049 L82.5863415,0.811707317 L79.3990244,0.811707317 L79.3990244,8.5297561 L70.6273171,8.5297561 L70.6273171,0.811707317 L67.4663415,0.811707317 L67.4663415,19.4878049 L70.6273171,19.4878049 Z M102.992195,19.4878049 L102.992195,16.537561 L94.6156098,16.537561 L94.6156098,11.5853659 L102.201951,11.5853659 L102.201951,8.71414634 L94.6156098,8.71414634 L94.6156098,3.76195122 L102.992195,3.76195122 L102.992195,0.811707317 L91.4546341,0.811707317 L91.4546341,19.4878049 L102.992195,19.4878049 Z" id="&lt;/THE" fill-rule="nonzero"></path>
                    </g>
                </g>
            </g>
        </g>
    </g>
</svg>