<?xml version="1.0" encoding="UTF-8"?>
<svg width="148px" height="15px" viewBox="0 0 148 15" version="1.1" xmlns="http://www.w3.org/2000/svg" xmlns:xlink="http://www.w3.org/1999/xlink">
    <title>B53B01C4-588D-4C9F-8481-798970E53E70</title>
    <g id="GCC-Landing-Page" stroke="none" stroke-width="1" fill="none" fill-rule="evenodd">
        <g id="GCC_LandingPage_Alt" transform="translate(-71.000000, -5455.000000)" fill="#FFFFFF" fill-rule="nonzero">
            <g id="footer" transform="translate(0.000000, 5390.000000)">
                <g id="footer-1">
                    <g id="GCC-Logo-Short" transform="translate(71.000000, 65.000000)">
                        <g>
                            <path d="M105.486,14.27 C108.744,14.27 110.688,12.2 111.264,10.04 L109.284,9.392 C108.852,10.832 107.628,12.2 105.486,12.2 C103.308,12.2 101.256,10.616 101.256,7.628 C101.256,4.532 103.362,3.002 105.468,3.002 C107.61,3.002 108.798,4.244 109.176,5.792 L111.21,5.108 C110.634,2.876 108.708,0.968 105.468,0.968 C102.156,0.968 99.042,3.47 99.042,7.628 C99.042,11.786 102.048,14.27 105.486,14.27 Z M121.986,14.27 C125.244,14.27 127.188,12.2 127.764,10.04 L125.784,9.392 C125.352,10.832 124.128,12.2 121.986,12.2 C119.808,12.2 117.756,10.616 117.756,7.628 C117.756,4.532 119.862,3.002 121.968,3.002 C124.11,3.002 125.298,4.244 125.676,5.792 L127.71,5.108 C127.134,2.876 125.208,0.968 121.968,0.968 C118.656,0.968 115.542,3.47 115.542,7.628 C115.542,11.786 118.548,14.27 121.986,14.27 Z M139.488,13.406 L147.084,9.608 L147.084,7.916 L139.488,4.1 L139.488,6.116 L144.96,8.762 L139.488,11.426 L139.488,13.406 Z" id="CC&gt;"></path>
                            <path d="M86.3497721,14.1484375 C87.0919596,14.1484375 87.7815755,14.0865885 88.4186198,13.9628906 C89.0556641,13.8391927 89.4916992,13.7340495 89.7267253,13.6474609 C89.9617513,13.5608724 90.3266602,13.40625 90.8214518,13.1835938 C91.167806,13.0351562 91.3409831,12.8434245 91.3409831,12.6083984 L91.3409831,12.6083984 L91.3409831,12.1074219 C91.3409831,11.9589844 91.3719076,11.686849 91.4337565,11.2910156 C91.5327148,10.672526 91.6193034,10.1529948 91.6935221,9.73242188 C91.7306315,9.546875 91.8357747,9.3984375 92.0089518,9.28710938 C92.3676758,9.07682292 92.7140299,8.97167969 93.0480143,8.97167969 C93.1346029,8.97167969 93.1778971,8.78613281 93.1778971,8.41503906 C92.0027669,8.47688802 91.2915039,8.5078125 91.0441081,8.5078125 L90.9975764,8.5074501 C90.7294032,8.50382614 89.9285075,8.47302246 88.5948893,8.41503906 C88.5083008,8.5016276 88.4650065,8.6500651 88.4650065,8.86035156 C88.4650065,8.93457031 88.4773763,8.97167969 88.5021159,8.97167969 C88.6629232,8.97167969 88.9165039,9.01806641 89.2628581,9.11083984 C89.6092122,9.20361328 89.7823893,9.32421875 89.7823893,9.47265625 C89.7823893,9.68294271 89.7576497,9.93652344 89.7081706,10.2333984 C89.6339518,10.6910807 89.4978841,11.4270833 89.2999674,12.4414062 C89.2752279,12.6022135 89.2133789,12.7197266 89.1144206,12.7939453 C88.730957,13.0784505 88.1186523,13.2207031 87.2775065,13.2207031 C86.2508138,13.2207031 85.4622396,12.8279622 84.9117839,12.0424805 C84.3613281,11.2569987 84.0861003,10.3014323 84.0861003,9.17578125 C84.0861003,8.79231771 84.1417643,8.33463542 84.2530924,7.80273438 C84.3644206,7.27083333 84.546875,6.69254557 84.8004557,6.06787109 C85.0540365,5.44319661 85.3570964,4.87109375 85.7096354,4.3515625 C86.0621745,3.83203125 86.5136719,3.39908854 87.0641276,3.05273438 C87.6145833,2.70638021 88.2114258,2.53320312 88.8546549,2.53320312 C89.3618164,2.53320312 89.8071289,2.60432943 90.1905924,2.74658203 C90.574056,2.88883464 90.8647461,3.05273438 91.0626628,3.23828125 C91.2605794,3.42382812 91.4213867,3.64957682 91.5450846,3.91552734 C91.6687826,4.18147786 91.7460938,4.40104167 91.7770182,4.57421875 C91.8079427,4.74739583 91.8234049,4.92057292 91.8234049,5.09375 C91.8976237,5.16796875 92.0213216,5.20507812 92.1944987,5.20507812 C92.4171549,5.20507812 92.5408529,5.14941406 92.5655924,5.03808594 C92.5779622,4.97623698 92.5996094,4.79378255 92.6305339,4.49072266 C92.6614583,4.18766276 92.6985677,3.81656901 92.741862,3.37744141 C92.7851563,2.9383138 92.8253581,2.58268229 92.8624674,2.31054688 C91.3162435,1.85286458 90.0174154,1.62402344 88.9659831,1.62402344 C87.7661133,1.62402344 86.6157227,1.9827474 85.5148112,2.70019531 C84.4138997,3.41764323 83.538737,4.3515625 82.8893229,5.50195312 C82.2399089,6.65234375 81.9152018,7.83984375 81.9152018,9.06445312 C81.9152018,10.4622396 82.3295898,11.6590169 83.1583659,12.6547852 C83.9871419,13.6505534 85.050944,14.1484375 86.3497721,14.1484375 Z" id="G"></path>
                            <path d="M7.786,13.406 L7.786,11.408 L2.35,8.744 L7.786,6.098 L7.786,4.1 L0.19,7.916 L0.19,9.608 L7.786,13.406 Z M20.77,14.09 L27.052,1.148 L25.126,1.148 L18.844,14.09 L20.77,14.09 Z M37.18,14 L37.18,3.272 L41.338,3.272 L41.338,1.238 L30.88,1.238 L30.88,3.272 L35.02,3.272 L35.02,14 L37.18,14 Z M48.262,14 L48.262,8.546 L54.256,8.546 L54.256,14 L56.434,14 L56.434,1.238 L54.256,1.238 L54.256,6.512 L48.262,6.512 L48.262,1.238 L46.102,1.238 L46.102,14 L48.262,14 Z M70.378,14 L70.378,11.984 L64.654,11.984 L64.654,8.6 L69.838,8.6 L69.838,6.638 L64.654,6.638 L64.654,3.254 L70.378,3.254 L70.378,1.238 L62.494,1.238 L62.494,14 L70.378,14 Z" id="&lt;/THE"></path>
                        </g>
                    </g>
                </g>
            </g>
        </g>
    </g>
</svg>