<?xml version="1.0" encoding="UTF-8"?>
<svg width="148px" height="15px" viewBox="0 0 148 15" version="1.1" xmlns="http://www.w3.org/2000/svg" xmlns:xlink="http://www.w3.org/1999/xlink">
    <!-- Generator: Sketch 64 (93537) - https://sketch.com -->
    <title>GCC Logo Short</title>
    <desc>Created with Sketch.</desc>
    <g id="GCC-Landing-Page" stroke="none" stroke-width="1" fill="none" fill-rule="evenodd">
        <g id="GCC_LogoShort" transform="translate(-225.000000, -43.000000)" fill="#000000">
            <g id="GCC-Logo-Short" transform="translate(224.000000, 38.000000)">
                <g>
                    <path d="M106.486,19.27 C109.744,19.27 111.688,17.2 112.264,15.04 L110.284,14.392 C109.852,15.832 108.628,17.2 106.486,17.2 C104.308,17.2 102.256,15.616 102.256,12.628 C102.256,9.532 104.362,8.002 106.468,8.002 C108.61,8.002 109.798,9.244 110.176,10.792 L112.21,10.108 C111.634,7.876 109.708,5.968 106.468,5.968 C103.156,5.968 100.042,8.47 100.042,12.628 C100.042,16.786 103.048,19.27 106.486,19.27 Z M122.986,19.27 C126.244,19.27 128.188,17.2 128.764,15.04 L126.784,14.392 C126.352,15.832 125.128,17.2 122.986,17.2 C120.808,17.2 118.756,15.616 118.756,12.628 C118.756,9.532 120.862,8.002 122.968,8.002 C125.11,8.002 126.298,9.244 126.676,10.792 L128.71,10.108 C128.134,7.876 126.208,5.968 122.968,5.968 C119.656,5.968 116.542,8.47 116.542,12.628 C116.542,16.786 119.548,19.27 122.986,19.27 Z M140.488,18.406 L148.084,14.608 L148.084,12.916 L140.488,9.1 L140.488,11.116 L145.96,13.762 L140.488,16.426 L140.488,18.406 Z" id="CC&gt;" fill-rule="nonzero"></path>
                    <path d="M87.3497721,19.1484375 C88.0919596,19.1484375 88.7815755,19.0865885 89.4186198,18.9628906 C90.0556641,18.8391927 90.4916992,18.7340495 90.7267253,18.6474609 C90.9617513,18.5608724 91.3266602,18.40625 91.8214518,18.1835938 C92.167806,18.0351562 92.3409831,17.8434245 92.3409831,17.6083984 L92.3409831,17.6083984 L92.3409831,17.1074219 C92.3409831,16.9589844 92.3719076,16.686849 92.4337565,16.2910156 C92.5327148,15.672526 92.6193034,15.1529948 92.6935221,14.7324219 C92.7306315,14.546875 92.8357747,14.3984375 93.0089518,14.2871094 C93.3676758,14.0768229 93.7140299,13.9716797 94.0480143,13.9716797 C94.1346029,13.9716797 94.1778971,13.7861328 94.1778971,13.4150391 C93.0027669,13.476888 92.2915039,13.5078125 92.0441081,13.5078125 L91.9975764,13.5074501 C91.7294032,13.5038261 90.9285075,13.4730225 89.5948893,13.4150391 C89.5083008,13.5016276 89.4650065,13.6500651 89.4650065,13.8603516 C89.4650065,13.9345703 89.4773763,13.9716797 89.5021159,13.9716797 C89.6629232,13.9716797 89.9165039,14.0180664 90.2628581,14.1108398 C90.6092122,14.2036133 90.7823893,14.3242188 90.7823893,14.4726562 C90.7823893,14.6829427 90.7576497,14.9365234 90.7081706,15.2333984 C90.6339518,15.6910807 90.4978841,16.4270833 90.2999674,17.4414062 C90.2752279,17.6022135 90.2133789,17.7197266 90.1144206,17.7939453 C89.730957,18.0784505 89.1186523,18.2207031 88.2775065,18.2207031 C87.2508138,18.2207031 86.4622396,17.8279622 85.9117839,17.0424805 C85.3613281,16.2569987 85.0861003,15.3014323 85.0861003,14.1757812 C85.0861003,13.7923177 85.1417643,13.3346354 85.2530924,12.8027344 C85.3644206,12.2708333 85.546875,11.6925456 85.8004557,11.0678711 C86.0540365,10.4431966 86.3570964,9.87109375 86.7096354,9.3515625 C87.0621745,8.83203125 87.5136719,8.39908854 88.0641276,8.05273438 C88.6145833,7.70638021 89.2114258,7.53320312 89.8546549,7.53320312 C90.3618164,7.53320312 90.8071289,7.60432943 91.1905924,7.74658203 C91.574056,7.88883464 91.8647461,8.05273438 92.0626628,8.23828125 C92.2605794,8.42382812 92.4213867,8.64957682 92.5450846,8.91552734 C92.6687826,9.18147786 92.7460938,9.40104167 92.7770182,9.57421875 C92.8079427,9.74739583 92.8234049,9.92057292 92.8234049,10.09375 C92.8976237,10.1679688 93.0213216,10.2050781 93.1944987,10.2050781 C93.4171549,10.2050781 93.5408529,10.1494141 93.5655924,10.0380859 C93.5779622,9.97623698 93.5996094,9.79378255 93.6305339,9.49072266 C93.6614583,9.18766276 93.6985677,8.81656901 93.741862,8.37744141 C93.7851562,7.9383138 93.8253581,7.58268229 93.8624674,7.31054688 C92.3162435,6.85286458 91.0174154,6.62402344 89.9659831,6.62402344 C88.7661133,6.62402344 87.6157227,6.9827474 86.5148112,7.70019531 C85.4138997,8.41764323 84.538737,9.3515625 83.8893229,10.5019531 C83.2399089,11.6523438 82.9152018,12.8398438 82.9152018,14.0644531 C82.9152018,15.4622396 83.3295898,16.6590169 84.1583659,17.6547852 C84.9871419,18.6505534 86.050944,19.1484375 87.3497721,19.1484375 Z" id="G" fill-rule="nonzero"></path>
                    <path d="M8.786,18.406 L8.786,16.408 L3.35,13.744 L8.786,11.098 L8.786,9.1 L1.19,12.916 L1.19,14.608 L8.786,18.406 Z M21.77,19.09 L28.052,6.148 L26.126,6.148 L19.844,19.09 L21.77,19.09 Z M38.18,19 L38.18,8.272 L42.338,8.272 L42.338,6.238 L31.88,6.238 L31.88,8.272 L36.02,8.272 L36.02,19 L38.18,19 Z M49.262,19 L49.262,13.546 L55.256,13.546 L55.256,19 L57.434,19 L57.434,6.238 L55.256,6.238 L55.256,11.512 L49.262,11.512 L49.262,6.238 L47.102,6.238 L47.102,19 L49.262,19 Z M71.378,19 L71.378,16.984 L65.654,16.984 L65.654,13.6 L70.838,13.6 L70.838,11.638 L65.654,11.638 L65.654,8.254 L71.378,8.254 L71.378,6.238 L63.494,6.238 L63.494,19 L71.378,19 Z" id="&lt;/THE" fill-rule="nonzero"></path>
                </g>
            </g>
        </g>
    </g>
</svg>