<?xml version="1.0" encoding="UTF-8"?>
<svg width="85px" height="60px" viewBox="0 0 85 60" version="1.1" xmlns="http://www.w3.org/2000/svg" xmlns:xlink="http://www.w3.org/1999/xlink">
    <!-- Generator: Sketch 63.1 (92452) - https://sketch.com -->
    <title>moe edit logo</title>
    <desc>Created with Sketch.</desc>
    <g id="Lading-Page" stroke="none" stroke-width="1" fill="none" fill-rule="evenodd">
        <g id="GCC_LandingPage" transform="translate(-118.000000, -1604.000000)" fill="#1A1A1A">
            <g id="articles" transform="translate(0.000000, 1070.000000)">
                <g id="moe-edit-logo" transform="translate(118.000000, 534.000000)">
                    <g transform="translate(0.000000, 0.000000)">
                        <path d="M37.8539299,59.6354167 C38.0354324,59.6354167 38.2129893,59.6117424 38.3866004,59.5643939 C38.5602115,59.5170455 38.7298769,59.4736427 38.8955966,59.4341856 C38.9429451,59.3710543 38.984375,59.3197601 39.0198864,59.280303 C39.0553977,59.240846 39.1165562,59.2211174 39.2033617,59.2211174 L39.2033617,59.2211174 L39.2388731,59.2211174 C39.2862216,59.1264205 39.3572443,59.0553977 39.4519413,59.0080492 C39.5466383,58.9607008 39.6452809,58.9212437 39.7478693,58.889678 C39.8978062,58.7239583 40.0595802,58.5681029 40.2331913,58.4221117 C40.4068024,58.2761206 40.5804135,58.1321023 40.7540246,57.9900568 C40.9276357,57.8480114 41.0973011,57.7059659 41.2630208,57.5639205 C41.4287405,57.421875 41.5865688,57.2679924 41.7365057,57.1022727 C41.8154198,57.1180556 41.8607955,57.1062184 41.8726326,57.0667614 C41.8844697,57.0273043 41.9180082,57.0075758 41.9732481,57.0075758 L41.9732481,57.0075758 L41.9850852,57.0194129 C42.1271307,56.8536932 42.2672033,56.6998106 42.405303,56.5577652 C42.5434028,56.4157197 42.7189867,56.3091856 42.9320549,56.2381629 C42.9478378,56.1908144 42.971512,56.1474116 43.0030777,56.1079545 C43.0346433,56.0684975 43.0701547,56.0290404 43.1096117,55.9895833 C43.2437658,55.9106692 43.3838384,55.8357008 43.5298295,55.764678 C43.6758207,55.6936553 43.8277304,55.6265783 43.9855587,55.563447 C44.0329072,55.4608586 44.0960385,55.3760259 44.1749527,55.3089489 C44.2538668,55.2418718 44.3367266,55.1846591 44.4235322,55.1373106 C44.5103378,55.0899621 44.601089,55.0445865 44.695786,55.0011837 C44.790483,54.9577809 44.8812342,54.9084596 44.9680398,54.8532197 C44.9996054,54.8295455 45.0351168,54.7979798 45.0745739,54.7585227 L45.0745739,54.7585227 L45.1929451,54.6401515 C45.2324021,54.6006944 45.2698864,54.5671559 45.3053977,54.539536 C45.3409091,54.511916 45.3783933,54.4981061 45.4178504,54.4981061 C45.4336332,54.4981061 45.4434975,54.5000789 45.4474432,54.5040246 L45.4578007,54.5084635 L45.4578007,54.5084635 L45.477036,54.5099432 C45.4454703,54.3442235 45.4257418,54.1765309 45.4178504,54.0068655 C45.409959,53.8372001 45.3586648,53.677399 45.2639678,53.5274621 C45.2324021,53.5432449 45.1988636,53.5531092 45.1633523,53.5570549 C45.1278409,53.5610006 45.0903567,53.5629735 45.0508996,53.5629735 C44.924637,53.5629735 44.7983744,53.5550821 44.6721117,53.5392992 L44.6721117,53.5392992 L44.2933239,53.4919508 C44.2696496,53.5787563 44.238084,53.6596433 44.1986269,53.7346117 C44.1591698,53.8095802 44.115767,53.8825758 44.0684186,53.9535985 C43.981613,53.9378157 43.9263731,53.9496528 43.9026989,53.9891098 C43.8790246,54.0285669 43.8356218,54.0482955 43.7724905,54.0482955 C43.7567077,54.0482955 43.7448706,54.0443497 43.7369792,54.0364583 C43.5475852,54.2495265 43.3384628,54.4369476 43.1096117,54.5987216 C42.8807607,54.7604956 42.6519097,54.9242424 42.4230587,55.0899621 C42.352036,55.145202 42.2790404,55.2024148 42.204072,55.2616004 C42.1291035,55.320786 42.0600537,55.3819444 41.9969223,55.4450758 L41.9969223,55.4450758 L41.8193655,55.6107955 C41.7877999,55.6423611 41.7404514,55.6581439 41.6773201,55.6581439 C41.6536458,55.6581439 41.6339173,55.6541982 41.6181345,55.6463068 C41.5865688,55.7725694 41.5273832,55.8672664 41.4405777,55.9303977 C41.3537721,55.993529 41.2985322,56.0842803 41.274858,56.2026515 C41.180161,56.2184343 41.1012468,56.2480271 41.0381155,56.2914299 C40.9749842,56.3348327 40.9197443,56.3880997 40.8723958,56.4512311 C40.8250473,56.5143624 40.7816446,56.5814394 40.7421875,56.6524621 C40.7027304,56.7234848 40.6553819,56.7905619 40.600142,56.8536932 L40.600142,56.8536932 L40.3752367,56.8536932 C40.17006,56.9957386 39.9786932,57.1594855 39.8011364,57.3449337 C39.6235795,57.5303819 39.4401042,57.7039931 39.2507102,57.865767 C39.0613163,58.027541 38.8581124,58.1636679 38.6410985,58.2741477 C38.4240846,58.3846275 38.1735322,58.4398674 37.8894413,58.4398674 C37.8420928,58.4398674 37.7967172,58.4378946 37.7533144,58.4339489 C37.7099116,58.4300032 37.6684817,58.4240846 37.6290246,58.4161932 C37.5816761,58.2504735 37.5007891,58.1025095 37.3863636,57.9723011 C37.2719381,57.8420928 37.1949968,57.6941288 37.1555398,57.5284091 C37.1160827,57.3942551 37.0884628,57.2522096 37.0726799,57.1022727 C37.0568971,56.9523359 37.0411143,56.8043718 37.0253314,56.6583807 C37.0095486,56.5123895 36.9898201,56.3683712 36.9661458,56.2263258 C36.9424716,56.0842803 36.9069602,55.9501263 36.8596117,55.8238636 C36.9543087,55.4845328 37.01744,55.1116635 37.0490057,54.7052557 C37.0805713,54.2988479 37.1141098,53.8904672 37.1496212,53.4801136 C37.1851326,53.0697601 37.2423453,52.6751894 37.3212595,52.2964015 C37.4001736,51.9176136 37.5422191,51.5822285 37.7473958,51.2902462 C37.8499842,51.266572 37.9446812,51.2271149 38.0314867,51.171875 L38.0314867,51.171875 L38.2919034,51.0061553 C38.378709,50.9509154 38.4655145,50.9015941 38.5523201,50.8581913 C38.6391256,50.8147885 38.7377683,50.7930871 38.8482481,50.7930871 C38.8955966,50.7930871 38.9508365,50.8009785 39.0139678,50.8167614 C39.0849905,50.6983902 39.2013889,50.6175032 39.3631629,50.5741004 C39.5249369,50.5306976 39.6689552,50.5089962 39.7952178,50.5089962 L39.7952178,50.5089962 L39.8662405,50.5089962 C39.8978062,50.5089962 39.9254261,50.5129419 39.9491004,50.5208333 C39.9885574,50.4419192 40.0457702,50.3866793 40.1207386,50.3551136 C40.1957071,50.323548 40.2746212,50.2979009 40.3574811,50.2781723 C40.4403409,50.2584438 40.5192551,50.2327967 40.5942235,50.2012311 C40.6691919,50.1696654 40.7264047,50.1183712 40.7658617,50.0473485 C40.789536,50.0552399 40.8329388,50.0591856 40.8960701,50.0591856 C41.0538984,50.0591856 41.1959438,50.0236742 41.3222064,49.9526515 L41.3984375,49.9142992 C41.5007102,49.8688447 41.6055082,49.8461174 41.7128314,49.8461174 C41.7680713,49.8461174 41.8193655,49.8579545 41.866714,49.8816288 C41.8903883,49.8263889 41.9258996,49.784959 41.9732481,49.757339 C42.0205966,49.7297191 42.0718908,49.7080177 42.1271307,49.6922348 L42.1271307,49.6922348 L42.3046875,49.6330492 C42.3678188,49.609375 42.419113,49.5778093 42.4585701,49.5383523 C42.7268782,49.514678 42.9892677,49.4574653 43.2457386,49.366714 C43.5022096,49.2759628 43.7547348,49.1792929 44.0033144,49.0767045 C44.2518939,48.9741162 44.5044192,48.8833649 44.7608902,48.8044508 C45.0173611,48.7255366 45.2836963,48.6860795 45.5598958,48.6860795 C45.5677872,48.6308396 45.5875158,48.5874369 45.6190814,48.5558712 C45.6506471,48.5243056 45.6861585,48.4927399 45.7256155,48.4611742 C45.7650726,48.4296086 45.800584,48.3960701 45.8321496,48.3605587 C45.8637153,48.3250473 45.8873895,48.275726 45.9031723,48.2125947 C45.8558239,48.1336806 45.8163668,48.0508207 45.7848011,47.9640152 C45.7532355,47.8772096 45.7137784,47.7943497 45.6664299,47.7154356 C45.6190814,47.6365215 45.5618687,47.5694444 45.4947917,47.5142045 C45.4277146,47.4589646 45.3389362,47.427399 45.2284564,47.4195076 C45.1574337,47.4826389 45.0765467,47.5280145 44.9857955,47.5556345 C44.8950442,47.5832544 44.8023201,47.6049558 44.7076231,47.6207386 C44.6129261,47.6365215 44.5182292,47.65625 44.4235322,47.6799242 C44.3288352,47.7035985 44.2420297,47.7430556 44.1631155,47.7982955 C44.1236585,47.7982955 44.0901199,47.7963226 44.0625,47.7923769 C44.0348801,47.7884312 44.0052872,47.7864583 43.9737216,47.7864583 C43.9105903,47.7864583 43.8514047,47.7963226 43.7961648,47.8160511 C43.7409249,47.8357797 43.6935764,47.8732639 43.6541193,47.9285038 C43.496291,47.912721 43.3266256,47.9363952 43.1451231,47.9995265 C42.9636206,48.0626578 42.8057923,48.1336806 42.6716383,48.2125947 C42.6242898,48.1889205 42.5651042,48.1770833 42.4940814,48.1770833 C42.3993845,48.1770833 42.3046875,48.2047033 42.2099905,48.2599432 C42.1152936,48.3151831 42.028488,48.3743687 41.9495739,48.4375 C41.6891572,48.4769571 41.4346591,48.5361427 41.1860795,48.6150568 C40.9375,48.693971 40.694839,48.7847222 40.4580966,48.8873106 C40.371291,48.9267677 40.2805398,48.9681976 40.1858428,49.0116004 C40.0911458,49.0550032 40.0003946,49.0885417 39.913589,49.1122159 C39.8031092,49.151673 39.6906566,49.1792929 39.5762311,49.1950758 C39.4618056,49.2108586 39.3493529,49.2384785 39.2388731,49.2779356 C39.0179135,49.3410669 38.7989268,49.4120896 38.5819129,49.4910038 C38.364899,49.5699179 38.1419665,49.6409407 37.9131155,49.704072 C37.9131155,49.6488321 37.9111427,49.595565 37.907197,49.5442708 C37.9032513,49.4929766 37.9012784,49.4357639 37.9012784,49.3726326 C37.9012784,49.2069129 37.9131155,49.0333018 37.9367898,48.8517992 C37.960464,48.6702967 38.0117582,48.504577 38.0906723,48.3546402 L38.0906723,48.3546402 L38.0906723,47.7982955 C38.2327178,47.4984217 38.3313605,47.184738 38.3866004,46.8572443 C38.4418403,46.5297506 38.512863,46.2081755 38.5996686,45.8925189 C38.9784564,45.6636679 39.3730271,45.4703283 39.7833807,45.3125 C40.1937342,45.1546717 40.600142,44.9928977 41.0026042,44.827178 C41.2077809,44.7403725 41.4050663,44.6496212 41.5944602,44.5549242 C41.7838542,44.4602273 41.9732481,44.369476 42.162642,44.2826705 C42.1705335,44.274779 42.1863163,44.2708333 42.2099905,44.2708333 C42.2415562,44.2708333 42.2652304,44.2787247 42.2810133,44.2945076 C42.2967961,44.3102904 42.3204703,44.3181818 42.352036,44.3181818 L42.352036,44.3181818 L42.3757102,44.3181818 C42.4151673,44.2629419 42.4664615,44.2195391 42.5295928,44.1879735 C42.5927241,44.1564078 42.6598011,44.126815 42.7308239,44.0991951 C42.8018466,44.0715751 42.8708965,44.0419823 42.9379735,44.0104167 C43.0050505,43.978851 43.0622633,43.9393939 43.1096117,43.8920455 C43.2911143,43.8683712 43.4607797,43.8210227 43.618608,43.75 C43.7764362,43.6789773 43.9322917,43.6040088 44.0861742,43.5250947 C44.2400568,43.4461806 44.3959122,43.3712121 44.5537405,43.3001894 C44.7115688,43.2291667 44.8772885,43.1857639 45.0508996,43.1699811 C45.1140309,43.0831755 45.1968908,43.0180713 45.2994792,42.9746686 C45.4020676,42.9312658 45.5125473,42.8937816 45.6309186,42.8622159 C45.7492898,42.8306503 45.8637153,42.7951389 45.9741951,42.7556818 C46.0846749,42.7162247 46.1754261,42.6570391 46.2464489,42.578125 C46.3569287,42.5702336 46.4634628,42.5465593 46.5660511,42.5071023 C46.6686395,42.4676452 46.7672822,42.4242424 46.8619792,42.3768939 C46.9566761,42.3295455 47.053346,42.2861427 47.1519886,42.2466856 C47.2506313,42.2072285 47.3551926,42.1756629 47.4656723,42.1519886 C47.5209122,42.1914457 47.5840436,42.2151199 47.6550663,42.2230114 C47.726089,42.2309028 47.793166,42.2387942 47.8562973,42.2466856 C47.8484059,42.2309028 47.8444602,42.1993371 47.8444602,42.1519886 C47.8444602,42.1125316 47.8582702,42.0868845 47.8858902,42.0750473 C47.9135101,42.0632102 47.9470486,42.0572917 47.9865057,42.0572917 C48.0259628,42.0572917 48.0792298,42.0612374 48.1463068,42.0691288 C48.2133838,42.0770202 48.2587595,42.0612374 48.2824337,42.0217803 C48.2903251,41.958649 48.2962437,41.891572 48.3001894,41.8205492 C48.3041351,41.7495265 48.306108,41.6785038 48.306108,41.6074811 C48.306108,41.568024 48.3041351,41.5246212 48.3001894,41.4772727 C48.2962437,41.4299242 48.2903251,41.3865215 48.2824337,41.3470644 C48.1482797,41.3549558 48.0614741,41.3154987 48.022017,41.2286932 C47.98256,41.1418876 47.9391572,41.0550821 47.8918087,40.9682765 C47.8050032,40.9682765 47.7201705,40.9584122 47.6373106,40.9386837 C47.5544508,40.9189552 47.4696181,40.9011995 47.3828125,40.8854167 C47.1539615,41.0511364 46.9152462,41.1833176 46.6666667,41.2819602 C46.4180871,41.3806029 46.1478062,41.4457071 45.8558239,41.4772727 C45.8558239,41.5325126 45.8380682,41.5719697 45.8025568,41.5956439 C45.7670455,41.6193182 45.7295612,41.6508838 45.6901042,41.6903409 C45.6743213,41.6824495 45.6605114,41.6745581 45.6486742,41.6666667 C45.6368371,41.6587753 45.6230271,41.6548295 45.6072443,41.6548295 C45.5520044,41.6548295 45.5007102,41.6765309 45.4533617,41.7199337 C45.4060133,41.7633365 45.3586648,41.796875 45.3113163,41.8205492 C45.2718592,41.7889836 45.220565,41.7732008 45.1574337,41.7732008 C45.086411,41.7732008 45.0153883,41.7889836 44.9443655,41.8205492 C44.8733428,41.8521149 44.8023201,41.8876263 44.7312973,41.9270833 C44.6602746,41.9665404 44.587279,42.0020518 44.5123106,42.0336174 C44.4373422,42.0651831 44.3643466,42.0809659 44.2933239,42.0809659 C44.238084,42.0809659 44.1946812,42.0770202 44.1631155,42.0691288 C44.1315499,42.1085859 44.1137942,42.1559343 44.1098485,42.2111742 C44.1059028,42.2664141 44.0802557,42.3058712 44.0329072,42.3295455 C44.0329072,42.3137626 44.0289615,42.2940341 44.0210701,42.2703598 C44.0131787,42.2466856 43.9973958,42.2348485 43.9737216,42.2348485 C43.9579388,42.2348485 43.9500473,42.2387942 43.9500473,42.2466856 C43.7211963,42.3571654 43.5140467,42.4538352 43.3285985,42.5366951 C43.1431503,42.6195549 42.9241635,42.6925505 42.6716383,42.7556818 C42.6795297,42.7872475 42.6795297,42.8227588 42.6716383,42.8622159 C42.6637468,42.901673 42.6321812,42.9214015 42.5769413,42.9214015 C42.5611585,42.9214015 42.5414299,42.9194287 42.5177557,42.915483 L42.4852036,42.911044 L42.4852036,42.911044 L42.4585701,42.9095644 C42.3638731,42.9095644 42.2750947,42.9253472 42.1922348,42.9569129 C42.109375,42.9884785 42.0324337,43.022017 41.961411,43.0575284 C41.8903883,43.0930398 41.8173927,43.1265783 41.7424242,43.1581439 C41.6674558,43.1897096 41.5905145,43.2054924 41.5116004,43.2054924 C41.4563605,43.2054924 41.4050663,43.1936553 41.3577178,43.1699811 C41.2630208,43.2410038 41.1624053,43.2982165 41.0558712,43.3416193 C40.9493371,43.3850221 40.8408302,43.426452 40.7303504,43.4659091 C40.6198706,43.5053662 40.5133365,43.5467961 40.4107481,43.5901989 C40.3081597,43.6336016 40.2134628,43.6947601 40.1266572,43.7736742 L40.1266572,43.7736742 L40.0793087,43.7736742 C40.0477431,43.7736742 40.022096,43.7657828 40.0023674,43.75 C39.9826389,43.7342172 39.9609375,43.7263258 39.9372633,43.7263258 L39.9372633,43.7263258 L39.913589,43.7263258 C39.8741319,43.8368056 39.8050821,43.9236111 39.7064394,43.9867424 C39.6077967,44.0498737 39.4992898,44.0814394 39.3809186,44.0814394 C39.3098958,44.0814394 39.2349274,44.0617109 39.1560133,44.0222538 C39.1717961,43.8959912 39.1717961,43.7756471 39.1560133,43.6612216 C39.1402304,43.5467961 39.1244476,43.426452 39.1086648,43.3001894 C39.1481218,43.2370581 39.1954703,43.1857639 39.2507102,43.1463068 C39.3059501,43.1068497 39.3414615,43.0437184 39.3572443,42.9569129 C39.3020044,42.8385417 39.2447917,42.7201705 39.1856061,42.6017992 C39.1264205,42.483428 39.0573706,42.3768939 38.9784564,42.282197 C38.8995423,42.1875 38.8068182,42.1105587 38.7002841,42.0513731 C38.59375,41.9921875 38.4655145,41.9625947 38.3155777,41.9625947 C38.2129893,41.9625947 38.1340751,41.9744318 38.0788352,41.9981061 C38.0235953,42.0217803 37.9782197,42.0494003 37.9427083,42.0809659 C37.907197,42.1125316 37.8697128,42.1460701 37.8302557,42.1815814 C37.7907986,42.2170928 37.7355587,42.2506313 37.664536,42.282197 C37.6803188,42.3690025 37.6941288,42.4577809 37.7059659,42.5485322 C37.717803,42.6392835 37.7237216,42.7320076 37.7237216,42.8267045 C37.7237216,42.9135101 37.7138573,42.9963699 37.6941288,43.0752841 C37.6744003,43.1541982 37.636916,43.2291667 37.5816761,43.3001894 C37.597459,43.3475379 37.6073232,43.3948864 37.6112689,43.4422348 C37.6152146,43.4895833 37.6171875,43.5369318 37.6171875,43.5842803 C37.6171875,43.8131313 37.5856218,44.0419823 37.5224905,44.2708333 C37.4593592,44.4996843 37.4199021,44.7285354 37.4041193,44.9573864 C37.2699653,44.9731692 37.1476484,45.0126263 37.0371686,45.0757576 C36.9266888,45.1388889 36.8181818,45.2118845 36.7116477,45.2947443 C36.6051136,45.3776042 36.5005524,45.4584912 36.397964,45.5374053 C36.2953756,45.6163194 36.1809501,45.6794508 36.0546875,45.7267992 C35.9915562,45.8767361 35.9599905,46.026673 35.9599905,46.1766098 C35.9599905,46.4291351 36.074416,46.646149 36.303267,46.8276515 L36.303267,46.8276515 L36.3269413,46.8276515 C36.4847696,46.8276515 36.6386521,46.8039773 36.788589,46.7566288 C36.9385259,46.7092803 37.0924085,46.6856061 37.2502367,46.6856061 L37.2502367,46.6856061 L37.3212595,46.6856061 C37.2581282,46.9775884 37.2107797,47.2735164 37.179214,47.5733902 L37.179214,47.5733902 L37.084517,48.4611742 C37.0529514,48.7531566 37.0115215,49.043166 36.9602273,49.3312027 C36.9089331,49.6192393 36.8319918,49.9013573 36.7294034,50.1775568 C36.5242266,50.2012311 36.330887,50.2821181 36.1493845,50.4202178 C35.9678819,50.5583176 35.8771307,50.7417929 35.8771307,50.9706439 C35.8771307,51.0337753 35.8889678,51.1087437 35.912642,51.1955492 C35.9363163,51.2823548 35.9678819,51.3533775 36.007339,51.4086174 C36.0546875,51.4717487 36.1395202,51.5210701 36.2618371,51.5565814 L36.3495058,51.5858043 C36.4331055,51.6176166 36.5044981,51.657197 36.5636837,51.7045455 C36.492661,52.0596591 36.4374211,52.4127999 36.397964,52.7639678 C36.3585069,53.1151357 36.3111585,53.4722222 36.2559186,53.8352273 C36.2480271,53.8667929 36.23619,53.9259785 36.2204072,54.0127841 C36.2046244,54.0995896 36.1868687,54.1903409 36.1671402,54.2850379 C36.1474116,54.3797348 36.1316288,54.4645676 36.1197917,54.539536 C36.1079545,54.6145044 36.102036,54.6598801 36.102036,54.6756629 C36.102036,54.7387942 36.115846,54.7841698 36.1434659,54.8117898 C36.1710859,54.8394097 36.1848958,54.8808396 36.1848958,54.9360795 C36.0665246,55.0149937 36.007339,55.1333649 36.007339,55.2911932 C36.007339,55.3701073 36.0172033,55.4470486 36.0369318,55.522017 C36.0566604,55.5969855 36.0783617,55.6660354 36.102036,55.7291667 C36.0783617,55.7607323 36.0566604,55.7942708 36.0369318,55.8297822 C36.0172033,55.8652936 35.9915562,55.8909407 35.9599905,55.9067235 C35.9994476,56.088226 36.0369318,56.2736742 36.0724432,56.4630682 C36.1079545,56.6524621 36.1375473,56.8379104 36.1612216,57.0194129 C36.1770044,57.1062184 36.1868687,57.1989426 36.1908144,57.2975852 C36.1947601,57.3962279 36.2046244,57.4850063 36.2204072,57.5639205 C36.23619,57.6112689 36.2618371,57.6309975 36.2973485,57.6231061 C36.3328598,57.6152146 36.3506155,57.6388889 36.3506155,57.6941288 C36.3506155,57.7256944 36.344697,57.759233 36.3328598,57.7947443 C36.3210227,57.8302557 36.3151042,57.8677399 36.3151042,57.907197 C36.3151042,58.0650253 36.3525884,58.2287721 36.4275568,58.3984375 C36.5025253,58.5681029 36.5636837,58.7318497 36.6110322,58.889678 C36.6899463,58.9685922 36.774779,59.051452 36.8655303,59.1382576 C36.9562816,59.2250631 37.0549242,59.3059501 37.1614583,59.3809186 C37.2679924,59.455887 37.3784722,59.5170455 37.4928977,59.5643939 C37.6073232,59.6117424 37.7276673,59.6354167 37.8539299,59.6354167 Z M53.9547822,56.8892045 C54.0494792,56.8497475 54.1264205,56.7925347 54.1856061,56.7175663 C54.2447917,56.6425979 54.3020044,56.5656566 54.3572443,56.4867424 C54.4124842,56.4078283 54.469697,56.330887 54.5288826,56.2559186 C54.5880682,56.1809501 54.6610638,56.1197917 54.7478693,56.0724432 C54.7320865,56.0172033 54.7399779,55.9738005 54.7715436,55.9422348 C54.8031092,55.9106692 54.8267835,55.8712121 54.8425663,55.8238636 C55.4738794,55.4371843 56.0558712,54.9992109 56.5885417,54.5099432 C57.1212121,54.0206755 57.6006155,53.4682765 58.0267519,52.8527462 L58.0267519,52.8527462 L58.1451231,52.8527462 C58.2319287,52.6791351 58.3325442,52.5173611 58.4469697,52.3674242 C58.5613952,52.2174874 58.6797664,52.0695234 58.8020833,51.9235322 C58.9244003,51.777541 59.0407986,51.6276042 59.1512784,51.4737216 C59.2617582,51.319839 59.3525095,51.1560922 59.4235322,50.9824811 C59.4708807,50.9824811 59.5044192,50.9686711 59.5241477,50.9410511 C59.5438763,50.9134312 59.5596591,50.8818655 59.5714962,50.8463542 C59.5833333,50.8108428 59.5991162,50.78125 59.6188447,50.7575758 C59.6385732,50.7339015 59.6721117,50.7220644 59.7194602,50.7220644 C59.9088542,50.3432765 60.1100852,49.9842172 60.3231534,49.6448864 C60.5362216,49.3055556 60.7354798,48.962279 60.920928,48.6150568 C61.1063763,48.2678346 61.258286,47.9048295 61.3766572,47.5260417 C61.4950284,47.1472538 61.554214,46.7329545 61.554214,46.2831439 L61.554214,46.2831439 L61.554214,46.0108902 C61.554214,45.931976 61.5423769,45.8530619 61.5187027,45.7741477 C61.4950284,45.6952336 61.4831913,45.6163194 61.4831913,45.5374053 C61.4831913,45.4505997 61.5068655,45.3716856 61.554214,45.3006629 C61.4752999,45.1586174 61.3884943,45.0441919 61.2937973,44.9573864 C61.3095802,44.8784722 61.3036616,44.8192866 61.2760417,44.7798295 C61.2484217,44.7403725 61.2385574,44.6851326 61.2464489,44.6141098 C61.1596433,44.5351957 61.0846749,44.4483902 61.0215436,44.3536932 C60.9584122,44.2589962 60.8933081,44.1623264 60.8262311,44.0636837 C60.759154,43.965041 60.6881313,43.8723169 60.6131629,43.7855114 C60.5381944,43.6987058 60.4533617,43.6197917 60.3586648,43.5487689 C60.3744476,43.4856376 60.3586648,43.4303977 60.3113163,43.3830492 C60.1771622,43.3278093 60.0390625,43.2725694 59.897017,43.2173295 C59.7549716,43.1620896 59.668166,43.0476641 59.6366004,42.874053 C59.5497948,42.8109217 59.4472064,42.7734375 59.3288352,42.7616004 C59.210464,42.7497633 59.115767,42.7162247 59.0447443,42.6609848 C59.0052872,42.6373106 58.9835859,42.6077178 58.9796402,42.5722064 C58.9756944,42.5366951 58.9539931,42.511048 58.914536,42.4952652 C58.8750789,42.4715909 58.8139205,42.4558081 58.7310606,42.4479167 C58.6482008,42.4400253 58.5830966,42.4281881 58.5357481,42.4124053 C58.4726168,42.3887311 58.4213226,42.3591383 58.3818655,42.3236269 C58.3424085,42.2881155 58.2911143,42.2624684 58.227983,42.2466856 C58.1569602,42.1993371 58.0780461,42.1717172 57.9912405,42.1638258 C57.904435,42.1559343 57.8176294,42.1500158 57.7308239,42.1460701 C57.6440183,42.1421244 57.5611585,42.1302872 57.4822443,42.1105587 C57.4033302,42.0908302 57.3283617,42.0494003 57.257339,41.9862689 C57.257339,41.9468119 57.2415562,41.931029 57.2099905,41.9389205 C57.1389678,42.0020518 57.056108,42.039536 56.961411,42.0513731 C56.866714,42.0632102 56.772017,42.0691288 56.6773201,42.0691288 C56.5510574,42.0691288 56.4267677,42.0612374 56.3044508,42.0454545 C56.1821338,42.0296717 56.0617898,42.0099432 55.9434186,41.9862689 C55.8487216,42.0099432 55.761916,42.0454545 55.6830019,42.092803 C55.6040878,42.1401515 55.5212279,42.1914457 55.4344223,42.2466856 C55.4186395,42.1914457 55.3910196,42.1638258 55.3515625,42.1638258 C55.3121054,42.1638258 55.2785669,42.17369 55.250947,42.1934186 C55.223327,42.2131471 55.1937342,42.2230114 55.1621686,42.2230114 C55.1306029,42.2230114 55.1108744,42.2072285 55.102983,42.1756629 C55.0950915,42.1440972 55.0911458,42.120423 55.0911458,42.1046402 C55.0516888,42.1046402 55.0240688,42.1164773 55.008286,42.1401515 C54.9925032,42.1638258 54.9767203,42.1894729 54.9609375,42.2170928 C54.9451547,42.2447128 54.927399,42.2703598 54.9076705,42.2940341 C54.8879419,42.3177083 54.8544034,42.3295455 54.8070549,42.3295455 C54.428267,42.3295455 54.0948548,42.3828125 53.8068182,42.4893466 C53.5187816,42.5958807 53.2129893,42.7241162 52.8894413,42.874053 C52.8499842,42.8661616 52.8046086,42.8602431 52.7533144,42.8562973 C52.7020202,42.8523516 52.6566446,42.8503788 52.6171875,42.8503788 C52.4514678,42.8503788 52.3074495,42.8819444 52.1851326,42.9450758 C52.0628157,43.0082071 51.9424716,43.0989583 51.8241004,43.2173295 C51.5479009,43.2804609 51.2815657,43.3692393 51.0250947,43.4836648 C50.7686237,43.5980903 50.5259628,43.75 50.2971117,43.9393939 L50.2971117,43.9393939 L50.2616004,43.9393939 C50.2221433,43.9393939 50.1886048,43.9315025 50.1609848,43.9157197 C50.1333649,43.8999369 50.0998264,43.8920455 50.0603693,43.8920455 L50.0603693,43.8920455 L50.0011837,43.8920455 C49.8828125,44.0498737 49.7723327,44.1860006 49.6697443,44.3004261 C49.5671559,44.4148516 49.5158617,44.5825442 49.5158617,44.8035038 L49.5158617,44.8035038 L49.5158617,44.8982008 C49.5158617,44.9297664 49.5198074,44.9613321 49.5276989,44.9928977 C49.5987216,45.0875947 49.67369,45.1803188 49.7526042,45.2710701 C49.8315183,45.3618213 49.9262153,45.4269255 50.0366951,45.4663826 C50.1629577,45.4190341 50.2971117,45.3697128 50.4391572,45.3184186 C50.5812027,45.2671244 50.7193024,45.2099116 50.8534564,45.1467803 C50.9876105,45.083649 51.115846,45.0126263 51.2381629,44.9337121 C51.3604798,44.854798 51.4689867,44.760101 51.5636837,44.6496212 C51.6189236,44.6575126 51.6662721,44.6515941 51.7057292,44.6318655 C51.7451862,44.612137 51.7806976,44.5884628 51.8122633,44.5608428 C51.8438289,44.5332229 51.8753946,44.5075758 51.9069602,44.4839015 C51.9385259,44.4602273 51.9819287,44.4483902 52.0371686,44.4483902 L52.0371686,44.4483902 L52.0726799,44.4483902 C52.0884628,44.9139836 52.125947,45.3756313 52.1851326,45.8333333 C52.2443182,46.2910354 52.273911,46.7566288 52.273911,47.2301136 C52.273911,47.3642677 52.2699653,47.5003946 52.2620739,47.6384943 C52.2541824,47.7765941 52.2344539,47.912721 52.2028883,48.046875 C52.2423453,48.181029 52.2620739,48.303346 52.2620739,48.4138258 C52.2620739,48.4532828 52.2581282,48.4986585 52.2502367,48.5499527 C52.2423453,48.6012468 52.2107797,48.6347854 52.1555398,48.6505682 C52.1949968,48.6979167 52.2265625,48.747238 52.2502367,48.7985322 C52.273911,48.8498264 52.2857481,48.9070391 52.2857481,48.9701705 C52.2857481,49.0411932 52.2758838,49.1141888 52.2561553,49.1891572 C52.2364268,49.2641256 52.2186711,49.3410669 52.2028883,49.4199811 C52.179214,49.6014836 52.1673769,49.7948232 52.1673769,50 L52.1673769,50 L52.1673769,50.6273674 C52.1673769,50.8325442 52.1594855,51.037721 52.1437027,51.2428977 C52.1279198,51.4480745 52.0924085,51.6335227 52.0371686,51.7992424 L52.0371686,51.7992424 L52.084517,51.9176136 C52.1002999,51.9570707 52.112137,52.0004735 52.1200284,52.047822 C52.0647885,52.2056503 52.0292771,52.3674242 52.0134943,52.5331439 C51.9977115,52.6988636 51.9898201,52.8645833 51.9898201,53.030303 C51.9898201,53.0934343 51.9937658,53.1624842 52.0016572,53.2374527 C52.0095486,53.3124211 52.0056029,53.381471 51.9898201,53.4446023 C51.9898201,53.4919508 51.977983,53.5353535 51.9543087,53.5748106 C51.9306345,53.6142677 51.9148516,53.6537247 51.9069602,53.6931818 C51.9700915,53.7484217 52.0016572,53.811553 52.0016572,53.8825758 C52.0016572,53.9457071 51.9937658,54.0068655 51.977983,54.0660511 C51.9622001,54.1252367 51.9543087,54.1863952 51.9543087,54.2495265 C51.9543087,54.4389205 51.9878472,54.6243687 52.0549242,54.8058712 C52.1220013,54.9873737 52.1555398,55.172822 52.1555398,55.3622159 C52.1555398,55.4569129 52.1417298,55.5476641 52.1141098,55.6344697 C52.0864899,55.7212753 52.0726799,55.8159722 52.0726799,55.9185606 C52.0726799,56.0527146 52.1141098,56.1770044 52.1969697,56.2914299 C52.2798295,56.4058554 52.3528251,56.5183081 52.4159564,56.6287879 C52.4475221,56.6208965 52.4909249,56.6169508 52.5461648,56.6169508 C52.6566446,56.6169508 52.7414773,56.6425979 52.8006629,56.693892 C52.8598485,56.7451862 52.9328441,56.7787247 53.0196496,56.7945076 C53.0591067,56.802399 53.1025095,56.8043718 53.149858,56.8004261 C53.1972064,56.7964804 53.2445549,56.7945076 53.2919034,56.7945076 C53.4023832,56.802399 53.5108902,56.8142361 53.6174242,56.8300189 C53.7239583,56.8458018 53.836411,56.8655303 53.9547822,56.8892045 Z M53.5641572,55.1846591 C53.4536774,55.145202 53.3708176,55.0682607 53.3155777,54.9538352 C53.2603378,54.8394097 53.2327178,54.7269571 53.2327178,54.6164773 C53.2327178,54.5454545 53.2485006,54.4823232 53.2800663,54.4270833 C53.2485006,54.1666667 53.2248264,53.9082229 53.2090436,53.6517519 C53.1932607,53.3952809 53.1853693,53.1368371 53.1853693,52.8764205 C53.1853693,52.600221 53.1972064,52.3200758 53.2208807,52.0359848 C53.2445549,51.7518939 53.2761206,51.4717487 53.3155777,51.1955492 C53.3155777,51.1639836 53.3175505,51.1343908 53.3214962,51.1067708 C53.3254419,51.0791509 53.3274148,51.0495581 53.3274148,51.0179924 C53.3274148,50.9390783 53.3234691,50.862137 53.3155777,50.7871686 C53.3076862,50.7122001 53.3037405,50.6392045 53.3037405,50.5681818 C53.3037405,50.457702 53.3234691,50.3551136 53.3629261,50.2604167 C53.4023832,50.1657197 53.4300032,50.067077 53.445786,49.9644886 C53.4536774,49.8855745 53.459596,49.8066604 53.4635417,49.7277462 C53.4674874,49.6488321 53.4694602,49.5738636 53.4694602,49.5028409 C53.4694602,49.2266414 53.4556503,48.9543876 53.4280303,48.6860795 C53.4004104,48.4177715 53.3866004,48.1455177 53.3866004,47.8693182 C53.3866004,47.750947 53.3905461,47.6325758 53.3984375,47.5142045 C53.4063289,47.3958333 53.4221117,47.2774621 53.445786,47.1590909 C53.3984375,47.0643939 53.3708176,46.9637784 53.3629261,46.8572443 C53.3550347,46.7507102 53.351089,46.6422033 53.351089,46.5317235 C53.351089,46.4212437 53.3491162,46.3107639 53.3451705,46.2002841 C53.3412247,46.0898043 53.3195234,45.9872159 53.2800663,45.8925189 C53.3037405,45.8214962 53.3195234,45.7485006 53.3274148,45.6735322 C53.3353062,45.5985638 53.3392519,45.5255682 53.3392519,45.4545455 C53.3392519,45.2493687 53.3175505,45.0461648 53.2741477,44.8449337 C53.2307449,44.6437027 53.2090436,44.4404987 53.2090436,44.235322 C53.2090436,44.1958649 53.2110164,44.1603535 53.2149621,44.1287879 C53.2189078,44.0972222 53.2208807,44.0617109 53.2208807,44.0222538 C53.2682292,44.0301452 53.2997948,44.0261995 53.3155777,44.0104167 C53.3313605,43.9946338 53.3412247,43.9729324 53.3451705,43.9453125 C53.3491162,43.9176926 53.3530619,43.8920455 53.3570076,43.8683712 C53.3609533,43.844697 53.3747633,43.8249684 53.3984375,43.8091856 C53.4378946,43.7776199 53.4931345,43.7618371 53.5641572,43.7618371 C53.6036143,43.7618371 53.6450442,43.7657828 53.688447,43.7736742 C53.7318497,43.7815657 53.7772254,43.7934028 53.8245739,43.8091856 C53.9666193,43.7065972 54.1283933,43.6296559 54.3098958,43.5783617 C54.4913984,43.5270676 54.6768466,43.4836648 54.8662405,43.4481534 C55.0556345,43.412642 55.2430556,43.3712121 55.4285038,43.3238636 C55.613952,43.2765152 55.7855903,43.2094381 55.9434186,43.1226326 C56.0144413,43.1699811 56.085464,43.1936553 56.1564867,43.1936553 C56.2196181,43.1936553 56.2866951,43.1818182 56.3577178,43.1581439 C56.4287405,43.1344697 56.4958176,43.1226326 56.5589489,43.1226326 C56.5984059,43.1226326 56.6398359,43.1206597 56.6832386,43.116714 C56.7266414,43.1127683 56.7759628,43.1107955 56.8312027,43.1107955 C57.1310764,43.1107955 57.4250316,43.1561711 57.7130682,43.2469223 C58.0011048,43.3376736 58.2871686,43.426452 58.5712595,43.5132576 C58.6817393,43.655303 58.819839,43.7657828 58.9855587,43.844697 C59.1512784,43.9236111 59.3130524,43.9946338 59.4708807,44.0577652 C59.5103378,44.2550505 59.6050347,44.369476 59.7549716,44.4010417 C59.8259943,44.4562816 59.8753157,44.5213857 59.9029356,44.5963542 C59.9305556,44.6713226 59.9956597,44.7088068 60.0982481,44.7088068 C60.1613794,44.921875 60.2363479,45.136916 60.3231534,45.3539299 C60.409959,45.5709438 60.4533617,45.7938763 60.4533617,46.0227273 L60.4533617,46.0227273 L60.4533617,46.2239583 C60.4533617,46.2949811 60.4395518,46.3423295 60.4119318,46.3660038 C60.3843119,46.389678 60.3507734,46.4291351 60.3113163,46.484375 C60.3270991,46.6579861 60.3192077,46.8158144 60.287642,46.9578598 C60.2560764,47.0999053 60.2166193,47.2360322 60.1692708,47.3662405 C60.1219223,47.4964489 60.0745739,47.6306029 60.0272254,47.7687027 C59.9798769,47.9068024 59.9483112,48.0547664 59.9325284,48.2125947 C59.7510259,48.4651199 59.5853062,48.7196181 59.4353693,48.976089 C59.2854324,49.23256 59.1236585,49.4870581 58.9500473,49.7395833 C58.886916,49.8263889 58.8257576,49.9072759 58.766572,49.9822443 C58.7073864,50.0572128 58.6462279,50.1302083 58.5830966,50.2012311 C58.5594223,50.2327967 58.5298295,50.2643624 58.4943182,50.295928 C58.4588068,50.3274937 58.429214,50.3590593 58.4055398,50.390625 C58.3660827,50.4300821 58.3384628,50.4754577 58.3226799,50.5267519 C58.3068971,50.5780461 58.2832229,50.6234217 58.2516572,50.6628788 C58.1885259,50.78125 58.1214489,50.8937027 58.0504261,51.0002367 C57.9794034,51.1067708 57.9083807,51.2152778 57.837358,51.3257576 C57.5848327,51.6808712 57.3106061,52.0162563 57.014678,52.3319129 C56.71875,52.6475694 56.4208491,52.9592803 56.1209754,53.2670455 L56.1209754,53.2670455 L55.600142,53.8233902 C55.560685,53.8628472 55.5271465,53.9003314 55.4995265,53.9358428 C55.4719066,53.9713542 55.4383681,54.0048927 55.398911,54.0364583 C55.3594539,54.068024 55.2844855,54.1173453 55.1740057,54.1844223 C55.0635259,54.2514994 54.980666,54.3047664 54.9254261,54.3442235 C54.7044665,54.5020518 54.4854798,54.6579072 54.2684659,54.8117898 C54.051452,54.9656723 53.8166824,55.0899621 53.5641572,55.1846591 Z M67.5816761,56.0369318 C67.6290246,55.9895833 67.6724274,55.9619634 67.7118845,55.954072 C67.8223643,55.9146149 67.9269255,55.8889678 68.0255682,55.8771307 C68.1242109,55.8652936 68.2287721,55.8317551 68.3392519,55.7765152 C68.4023832,55.6818182 68.4773516,55.5831755 68.5641572,55.4805871 C68.6509628,55.3779987 68.6943655,55.2635732 68.6943655,55.1373106 L68.6943655,55.1373106 L68.6943655,55.1017992 C68.6943655,55.0860164 68.6904198,55.0702336 68.6825284,55.0544508 C68.6351799,54.9597538 68.5641572,54.8966225 68.4694602,54.8650568 C68.3747633,54.8334912 68.2721749,54.8137626 68.1616951,54.8058712 C68.0512153,54.7979798 67.9407355,54.7940341 67.8302557,54.7940341 C67.7197759,54.7940341 67.6250789,54.782197 67.5461648,54.7585227 C67.435685,54.6006944 67.3567708,54.4251105 67.3094223,54.2317708 C67.2620739,54.0384312 67.2383996,53.8470644 67.2383996,53.6576705 C67.2383996,53.5235164 67.246291,53.367661 67.2620739,53.1901042 C67.2778567,53.0125473 67.2995581,52.8310448 67.327178,52.6455966 C67.354798,52.4601484 67.3863636,52.2806187 67.421875,52.1070076 C67.4573864,51.9333965 67.4988163,51.7834596 67.5461648,51.657197 C67.5145991,51.5861742 67.4988163,51.5033144 67.4988163,51.4086174 C67.4988163,51.2113321 67.5343277,51.023911 67.6053504,50.8463542 C67.6763731,50.6687973 67.7118845,50.4892677 67.7118845,50.3077652 C67.7118845,50.2367424 67.7099116,50.1716383 67.7059659,50.1124527 C67.7020202,50.053267 67.7039931,49.9921086 67.7118845,49.9289773 C67.7355587,49.6133207 67.7809343,49.3016098 67.8480114,48.9938447 C67.9150884,48.6860795 67.9565183,48.370423 67.9723011,48.046875 C67.988084,47.6680871 68.0137311,47.2952178 68.0492424,46.928267 C68.0847538,46.5613163 68.1025095,46.188447 68.1025095,45.8096591 C68.1025095,45.6676136 68.1005366,45.5255682 68.0965909,45.3835227 C68.0926452,45.2414773 68.0906723,45.0994318 68.0906723,44.9573864 C68.0906723,44.854798 68.0946181,44.7541824 68.1025095,44.6555398 C68.1104009,44.5568971 68.1143466,44.4562816 68.1143466,44.3536932 C68.1143466,44.2432134 68.1044823,44.1347064 68.0847538,44.0281723 C68.0650253,43.9216383 68.027541,43.8210227 67.9723011,43.7263258 C67.9801926,43.7105429 67.9841383,43.6947601 67.9841383,43.6789773 L67.9841383,43.6789773 L67.9841383,43.6316288 C67.9841383,43.5921717 67.9801926,43.5566604 67.9723011,43.5250947 C67.9644097,43.493529 67.960464,43.4580177 67.960464,43.4185606 C67.960464,43.3869949 67.9644097,43.3633207 67.9723011,43.3475379 C67.8460385,43.2528409 67.6961016,43.2054924 67.5224905,43.2054924 C67.2857481,43.2054924 67.0805713,43.264678 66.9069602,43.3830492 C66.8675032,43.4461806 66.8438289,43.5152304 66.8359375,43.5901989 C66.8280461,43.6651673 66.8241004,43.7421086 66.8241004,43.8210227 C66.8241004,43.9946338 66.8379104,44.1662721 66.8655303,44.3359375 C66.8931503,44.5056029 66.9069602,44.6811869 66.9069602,44.8626894 C66.9069602,45.2020202 66.8892045,45.5374053 66.8536932,45.8688447 C66.8181818,46.2002841 66.8004261,46.5396149 66.8004261,46.8868371 C66.8004261,46.942077 66.8043718,46.9953441 66.8122633,47.0466383 C66.8201547,47.0979324 66.8201547,47.1472538 66.8122633,47.1946023 C66.8043718,47.3445391 66.7846433,47.4885574 66.7530777,47.6266572 C66.721512,47.7647569 66.7057292,47.9048295 66.7057292,48.046875 C66.7057292,48.0942235 66.707702,48.1455177 66.7116477,48.2007576 C66.7155934,48.2559975 66.721512,48.3072917 66.7294034,48.3546402 C66.6583807,48.6229482 66.6051136,48.8971749 66.5696023,49.1773201 C66.5340909,49.4574653 66.5025253,49.7376105 66.4749053,50.0177557 C66.4472854,50.2979009 66.4098011,50.5760732 66.3624527,50.8522727 C66.3151042,51.1284722 66.2401357,51.3967803 66.1375473,51.657197 C66.1612216,51.6729798 66.1750316,51.6927083 66.1789773,51.7163826 C66.182923,51.7400568 66.1848958,51.7637311 66.1848958,51.7874053 C66.1848958,51.8268624 66.182923,51.8604009 66.1789773,51.8880208 C66.1750316,51.9156408 66.1730587,51.9491793 66.1730587,51.9886364 L66.1730587,51.9886364 L66.1730587,52.047822 C66.1099274,52.2845644 66.0625789,52.5291982 66.0310133,52.7817235 C65.9994476,53.0342487 65.9836648,53.286774 65.9836648,53.5392992 C65.9836648,53.6892361 65.993529,53.8648201 66.0132576,54.0660511 C66.0329861,54.2672822 66.0645518,54.4704861 66.1079545,54.6756629 C66.1513573,54.8808396 66.2105429,55.0741793 66.2855114,55.2556818 C66.3604798,55.4371843 66.4532039,55.5831755 66.5636837,55.6936553 C66.626815,55.764678 66.7274306,55.8041351 66.8655303,55.8120265 C67.0036301,55.8199179 67.1160827,55.8396465 67.2028883,55.8712121 C67.2660196,55.8869949 67.3291509,55.9165878 67.3922822,55.9599905 C67.4554135,56.0033933 67.5185448,56.0290404 67.5816761,56.0369318 Z M77.5035511,56.1908144 C77.5666824,56.1908144 77.6298138,56.1710859 77.6929451,56.1316288 C77.7560764,56.0921717 77.8073706,56.0724432 77.8468277,56.0724432 C77.8705019,56.088226 77.9040404,56.1079545 77.9474432,56.1316288 C77.990846,56.155303 78.0243845,56.1671402 78.0480587,56.1671402 C78.1190814,56.1671402 78.192077,56.1454388 78.2670455,56.102036 C78.3420139,56.0586332 78.3992266,56.0093119 78.4386837,55.954072 C78.4702494,55.9146149 78.4958965,55.8357008 78.515625,55.7173295 C78.5353535,55.5989583 78.5531092,55.5082071 78.568892,55.4450758 C78.5846749,55.3661616 78.6044034,55.2892203 78.6280777,55.2142519 C78.6517519,55.1392835 78.663589,55.0623422 78.663589,54.983428 L78.663589,54.983428 L78.663589,54.9360795 C78.5531092,54.8413826 78.4288194,54.7723327 78.2907197,54.7289299 C78.1526199,54.6855271 78.0322759,54.6125316 77.9296875,54.5099432 C77.9375789,54.4704861 77.9434975,54.431029 77.9474432,54.391572 C77.9513889,54.3521149 77.9533617,54.3126578 77.9533617,54.2732008 C77.9533617,54.1706124 77.9178504,54.0640783 77.8468277,53.9535985 C77.8626105,53.7010732 77.8527462,53.4544665 77.8172348,53.2137784 C77.7817235,52.9730903 77.7639678,52.7264836 77.7639678,52.4739583 C77.7639678,52.4266098 77.7698864,52.3812342 77.7817235,52.3378314 C77.7935606,52.2944287 77.8073706,52.249053 77.8231534,52.2017045 L77.8231534,52.2017045 L77.9296875,51.4204545 C77.9928188,50.9548611 78.0460859,50.4892677 78.0894886,50.0236742 C78.1328914,49.5580808 78.2216698,49.1003788 78.3558239,48.6505682 C78.340041,48.5874369 78.3321496,48.5400884 78.3321496,48.5085227 C78.3321496,48.4611742 78.340041,48.4157986 78.3558239,48.3723958 C78.3716067,48.3289931 78.3992266,48.2954545 78.4386837,48.2717803 L78.4386837,48.2717803 L78.4505208,48.2481061 C78.4505208,48.2007576 78.434738,48.1672191 78.4031723,48.1474905 C78.3716067,48.127762 78.3558239,48.0981692 78.3558239,48.0587121 L78.3558239,48.0587121 L78.3558239,48.0113636 C78.434738,47.5299874 78.4978693,47.0407197 78.5452178,46.5435606 C78.5925663,46.0464015 78.6872633,45.5571338 78.8293087,45.0757576 C78.8135259,45.0126263 78.7937973,44.9455492 78.7701231,44.8745265 C78.7464489,44.8035038 78.7346117,44.7285354 78.7346117,44.6496212 C78.7346117,44.6338384 78.7385574,44.6220013 78.7464489,44.6141098 C78.9831913,44.4878472 79.2278251,44.3813131 79.4803504,44.2945076 C79.7328756,44.207702 79.9893466,44.1287879 80.2497633,44.0577652 C80.5101799,43.9867424 80.7705966,43.9196654 81.0310133,43.8565341 C81.2914299,43.7934028 81.5479009,43.7184343 81.8004261,43.6316288 C81.8083176,43.6868687 81.8418561,43.7065972 81.9010417,43.6908144 C81.9602273,43.6750316 81.9977115,43.6868687 82.0134943,43.7263258 C82.04506,43.6474116 82.098327,43.588226 82.1732955,43.5487689 C82.2482639,43.5093119 82.3311237,43.4777462 82.421875,43.454072 C82.5126263,43.4303977 82.5994318,43.4047506 82.6822917,43.3771307 C82.7651515,43.3495107 82.8381471,43.3120265 82.9012784,43.264678 C82.9565183,43.3041351 83.0117582,43.3238636 83.0669981,43.3238636 C83.1459122,43.3238636 83.2248264,43.3041351 83.3037405,43.264678 C83.3826547,43.225221 83.4615688,43.1936553 83.540483,43.1699811 C83.6351799,43.2331124 83.7298769,43.292298 83.8245739,43.3475379 C83.9192708,43.4027778 84.0060764,43.4698548 84.0849905,43.5487689 C84.1165562,43.4856376 84.1639047,43.4422348 84.227036,43.4185606 C84.2901673,43.3948864 84.3592172,43.3771307 84.4341856,43.3652936 C84.509154,43.3534564 84.5821496,43.3435922 84.6531723,43.3357008 C84.7241951,43.3278093 84.7912721,43.3041351 84.8544034,43.264678 C84.846512,43.1068497 84.8425663,42.9509943 84.8425663,42.7971117 C84.8425663,42.6432292 84.8070549,42.4992109 84.7360322,42.3650568 C84.6255524,42.3413826 84.5348011,42.3058712 84.4637784,42.2585227 C84.3927557,42.2111742 84.3256787,42.1618529 84.2625473,42.1105587 C84.199416,42.0592645 84.1283933,42.0158617 84.0494792,41.9803504 C83.970565,41.944839 83.8640309,41.9270833 83.7298769,41.9270833 C83.5010259,41.9270833 83.2820391,41.958649 83.0729167,42.0217803 C82.8637942,42.0849116 82.6487532,42.1164773 82.4277936,42.1164773 L82.4277936,42.1164773 L82.3449337,42.1164773 C82.3212595,42.1164773 82.2975852,42.1125316 82.273911,42.1046402 C82.1397569,42.1993371 81.9957386,42.2743056 81.8418561,42.3295455 C81.6879735,42.3847854 81.5321181,42.4124053 81.3742898,42.4124053 L81.3742898,42.4124053 L81.3387784,42.4124053 C81.1493845,42.5307765 80.9481534,42.6195549 80.7350852,42.6787405 C80.522017,42.7379261 80.3050032,42.7892203 80.0840436,42.8326231 C79.863084,42.8760259 79.6460701,42.9253472 79.4330019,42.9805871 C79.2199337,43.035827 79.0187027,43.1147412 78.8293087,43.2173295 C78.7425032,43.2094381 78.6695076,43.2133838 78.610322,43.2291667 C78.5511364,43.2449495 78.4939236,43.264678 78.4386837,43.2883523 C78.3834438,43.3120265 78.3301768,43.3396465 78.2788826,43.3712121 C78.2275884,43.4027778 78.1703756,43.4225063 78.1072443,43.4303977 L78.1072443,43.4303977 L77.8586648,43.454072 C77.7324021,43.4856376 77.6081124,43.5191761 77.4857955,43.5546875 C77.3634785,43.5901989 77.2352431,43.6079545 77.101089,43.6079545 C77.0142835,43.6079545 76.9511521,43.6040088 76.9116951,43.5961174 C76.8485638,43.6671402 76.7637311,43.7223801 76.657197,43.7618371 C76.5506629,43.8012942 76.4362374,43.8368056 76.3139205,43.8683712 C76.1916035,43.8999369 76.0712595,43.9354482 75.9528883,43.9749053 C75.834517,44.0143624 75.7319287,44.0696023 75.6451231,44.140625 C75.605666,44.0853851 75.5464804,44.0577652 75.4675663,44.0577652 C75.3649779,44.0577652 75.2604167,44.087358 75.1538826,44.1465436 L75.0736121,44.1853841 C74.9929717,44.218676 74.9112216,44.235322 74.8283617,44.235322 C74.7257734,44.235322 74.6468592,44.2037563 74.5916193,44.140625 C74.528488,44.2274306 74.4416824,44.2905619 74.3312027,44.3300189 C74.2207229,44.369476 74.1141888,44.3892045 74.0116004,44.3892045 C73.9642519,44.3892045 73.9169034,44.3852588 73.8695549,44.3773674 C73.8222064,44.369476 73.7788037,44.3497475 73.7393466,44.3181818 C73.7235638,44.3892045 73.6841067,44.4444444 73.6209754,44.4839015 C73.5578441,44.5233586 73.4887942,44.5529514 73.4138258,44.5726799 C73.3388573,44.5924085 73.2599432,44.612137 73.1770833,44.6318655 C73.0942235,44.6515941 73.0251736,44.6772412 72.9699337,44.7088068 C72.9225852,44.6851326 72.8791824,44.6732955 72.8397254,44.6732955 C72.7055713,44.6732955 72.575363,44.6969697 72.4491004,44.7443182 C72.3228378,44.7916667 72.1965751,44.8153409 72.0703125,44.8153409 C72.0308554,44.8153409 71.9953441,44.8133681 71.9637784,44.8094223 C71.9322128,44.8054766 71.8967014,44.7995581 71.8572443,44.7916667 C71.6836332,44.8784722 71.5573706,45.0126263 71.4784564,45.1941288 C71.3995423,45.3756313 71.3600852,45.5650253 71.3600852,45.7623106 C71.3600852,45.9122475 71.3837595,46.0700758 71.431108,46.2357955 C71.5889362,46.2989268 71.727036,46.3660038 71.8454072,46.4370265 C71.9637784,46.5080492 72.1097696,46.551452 72.2833807,46.5672348 C72.3070549,46.4409722 72.3622948,46.3581124 72.4491004,46.3186553 C72.6937342,46.2949811 72.9324495,46.2436869 73.1652462,46.1647727 C73.3980429,46.0858586 73.6288668,46.0010259 73.8577178,45.9102746 C74.0865688,45.8195234 74.3173927,45.7346907 74.5501894,45.6557765 C74.7829861,45.5768624 75.0217014,45.5255682 75.2663352,45.5018939 C75.2584438,45.4229798 75.2840909,45.3756313 75.3432765,45.3598485 C75.4024621,45.3440657 75.4596749,45.3243371 75.5149148,45.3006629 C75.5543718,45.3085543 75.5898832,45.3125 75.6214489,45.3125 L75.6214489,45.3125 L75.7398201,45.3125 C75.9055398,45.3125 76.0712595,45.2888258 76.2369792,45.2414773 C76.4026989,45.1941288 76.5723643,45.1665088 76.7459754,45.1586174 C76.7854324,45.0875947 76.8505366,45.0343277 76.9412879,44.9988163 C77.0320391,44.9633049 77.1208176,44.9455492 77.2076231,44.9455492 C77.2707544,44.9455492 77.3417771,44.9613321 77.4206913,44.9928977 C77.4443655,45.1112689 77.4562027,45.2256944 77.4562027,45.3361742 C77.4562027,45.5650253 77.4364741,45.7919034 77.397017,46.0168087 C77.35756,46.241714 77.3378314,46.4646465 77.3378314,46.6856061 C77.290483,46.7645202 77.2589173,46.8592172 77.2431345,46.969697 C77.2273516,47.0801768 77.2194602,47.1926294 77.2194602,47.3070549 C77.2194602,47.4214804 77.2155145,47.5299874 77.2076231,47.6325758 C77.1997317,47.7351641 77.1760574,47.818024 77.1366004,47.8811553 C77.1208176,48.3388573 77.0695234,48.7866951 76.9827178,49.2246686 C76.8959122,49.662642 76.8327809,50.1065341 76.7933239,50.5563447 C76.7854324,50.619476 76.7795139,50.700363 76.7755682,50.7990057 C76.7716225,50.8976484 76.7617582,50.9982639 76.7459754,51.1008523 C76.7301926,51.2034407 76.7084912,51.2981376 76.6808712,51.3849432 C76.6532513,51.4717487 76.615767,51.5348801 76.5684186,51.5743371 C76.5842014,51.8347538 76.5842014,52.0931976 76.5684186,52.3496686 C76.5526357,52.6061395 76.5447443,52.8645833 76.5447443,53.125 C76.5447443,53.4011995 76.5723643,53.6655619 76.6276042,53.9180871 L76.6276042,53.9180871 L76.6276042,53.9654356 C76.6276042,54.0048927 76.6098485,54.0344855 76.5743371,54.054214 C76.5388258,54.0739426 76.5250158,54.1035354 76.5329072,54.1429924 L76.5329072,54.1429924 L76.5329072,54.1666667 C76.5723643,54.1903409 76.5980114,54.2258523 76.6098485,54.2732008 C76.6216856,54.3205492 76.6276042,54.363952 76.6276042,54.4034091 C76.6276042,54.4981061 76.6078756,54.5730745 76.5684186,54.6283144 C76.6788984,54.6914457 76.7400568,54.7940341 76.7518939,54.9360795 C76.7637311,55.078125 76.777541,55.2043876 76.7933239,55.3148674 C76.8406723,55.401673 76.8880208,55.4726957 76.9353693,55.5279356 C76.9827178,55.5831755 77.0024463,55.6660354 76.9945549,55.7765152 C77.0734691,55.8317551 77.1425189,55.8889678 77.2017045,55.9481534 C77.2608902,56.007339 77.3062658,56.0763889 77.3378314,56.155303 C77.3693971,56.1710859 77.397017,56.1809501 77.4206913,56.1848958 C77.4443655,56.1888415 77.4719855,56.1908144 77.5035511,56.1908144 Z" id="EDIT" fill-rule="nonzero"></path>
                        <path d="M12.3636364,36.4509091 L21.8763636,15.1272727 L21.8763636,27.8981818 C21.8763636,35.2 21.7890909,35.7236364 20.16,36.16 L20.16,36.3636364 L26.0072727,36.3636364 L26.0072727,36.16 C24.4356791,35.7390374 24.2719165,35.2368539 24.2623144,28.6462794 L24.2623144,22.2599448 C24.2719165,15.6451634 24.4356791,15.1700535 26.0072727,14.7490909 L26.0072727,14.5454545 L21.8181818,14.5454545 L13.3236364,33.5418182 L5.09090909,15.2436364 C4.82909091,14.5745455 4.8,14.5454545 4.50909091,14.5454545 L0.465454545,14.5454545 L0.465454545,14.7490909 C2.09454545,15.2145455 2.18181818,15.68 2.18181818,23.0109091 L2.18181818,27.7818182 C2.18181818,35.0836364 2.03636364,35.5490909 0.465454545,36.16 L0.465454545,36.3636364 L4.36363636,36.3636364 L4.36363636,36.16 C2.65172193,35.5987166 2.48300673,35.1186542 2.47322991,28.529816 L2.47272727,15.0690909 L12.0145455,36.4509091 L12.3636364,36.4509091 Z M38.5745455,36.5963636 C44.3345455,36.5963636 49.6581818,31.9709091 49.6581818,25.4254545 C49.6581818,18.9672727 44.3345455,14.3127273 38.5745455,14.3127273 C32.7854545,14.3127273 27.4909091,18.9672727 27.4909091,25.4254545 C27.4909091,31.9709091 32.7854545,36.5963636 38.5745455,36.5963636 Z M38.5745455,36.3345455 C34.0945455,36.3345455 30.0509091,33.3381818 30.0509091,25.4254545 C30.0509091,17.5127273 34.1236364,14.5745455 38.5745455,14.5745455 C43.0254545,14.5745455 47.04,17.5127273 47.04,25.4254545 C47.04,33.3381818 43.0254545,36.3345455 38.5745455,36.3345455 Z M68.3054545,35.84 L68.6254545,32.7563636 L68.3345455,32.7563636 C67.6218182,35.6928 66.3782516,36.0867956 64.0014829,36.1013809 L55.2436364,36.1018182 L55.2436364,24.4363636 L58.9672727,24.4363636 C61.3527273,24.4363636 61.44,25.6 61.6436364,26.5890909 L61.9345455,26.5890909 L61.9345455,22.0218182 L61.6436364,22.0218182 C61.44,23.0109091 61.3527273,24.1745455 58.9672727,24.1745455 L55.2436364,24.1745455 L55.2436364,14.8072727 L63.3018182,14.8072727 C65.6290909,14.8072727 66.9090909,15.3890909 67.6654545,17.8036364 L67.9563636,17.8036364 L67.4909091,15.1563636 C67.4036364,14.5454545 67.2581818,14.5454545 66.9672727,14.5454545 L51.1709091,14.5454545 L51.1709091,14.7490909 C52.8,15.2145455 52.8872727,15.68 52.8872727,23.0109091 L52.8872727,27.8981818 C52.8872727,35.2 52.8,35.6945455 51.1709091,36.16 L51.1709091,36.3636364 L67.7527273,36.3636364 C68.0727273,36.3636364 68.2472727,36.3636364 68.3054545,35.84 Z" id="MOE" fill-rule="nonzero"></path>
                        <path d="M30.8860085,8.0954072 C30.9175742,8.0954072 30.9491398,8.08554293 30.9807055,8.06581439 C31.0122711,8.04608586 31.0379182,8.03622159 31.0576468,8.03622159 C31.0694839,8.04411301 31.0862532,8.05397727 31.1079545,8.06581439 C31.1296559,8.07765152 31.1464252,8.08357008 31.1582623,8.08357008 C31.1937737,8.08357008 31.2302715,8.07271938 31.2677557,8.05101799 C31.3052399,8.0293166 31.3338463,8.00465593 31.3535748,7.97703598 C31.3693576,7.95730745 31.3821812,7.91785038 31.3920455,7.85866477 C31.4019097,7.79947917 31.4107876,7.75410354 31.418679,7.72253788 C31.4265704,7.68308081 31.4364347,7.64461016 31.4482718,7.60712595 C31.4601089,7.56964173 31.4660275,7.53117109 31.4660275,7.49171402 L31.4660275,7.49171402 L31.4660275,7.46803977 C31.4107876,7.42069129 31.3486427,7.38616635 31.2795928,7.36446496 C31.2105429,7.34276357 31.1503709,7.30626578 31.0990767,7.25497159 C31.1030224,7.23524306 31.1059817,7.21551452 31.1079545,7.19578598 C31.1099274,7.17605745 31.1109138,7.15632891 31.1109138,7.13660038 C31.1109138,7.08530619 31.0931581,7.03203914 31.0576468,6.97679924 C31.0655382,6.85053662 31.0606061,6.72723327 31.0428504,6.6068892 C31.0250947,6.48654514 31.0162169,6.36324179 31.0162169,6.23697917 C31.0162169,6.21330492 31.0191761,6.19061711 31.0250947,6.16891572 C31.0310133,6.14721433 31.0379182,6.12452652 31.0458097,6.10085227 L31.0458097,6.10085227 L31.0990767,5.71022727 C31.1306424,5.47743056 31.1572759,5.24463384 31.1789773,5.01183712 C31.2006787,4.7790404 31.2450679,4.55018939 31.3121449,4.32528409 C31.3042535,4.29371843 31.3003078,4.27004419 31.3003078,4.25426136 C31.3003078,4.23058712 31.3042535,4.20789931 31.3121449,4.18619792 C31.3200363,4.16449653 31.3338463,4.14772727 31.3535748,4.13589015 L31.3535748,4.13589015 L31.3594934,4.12405303 C31.3594934,4.10037879 31.351602,4.08360953 31.3358191,4.07374527 C31.3200363,4.063881 31.3121449,4.0490846 31.3121449,4.02935606 L31.3121449,4.02935606 L31.3121449,4.00568182 C31.351602,3.76499369 31.3831676,3.52035985 31.4068419,3.2717803 C31.4305161,3.02320076 31.4778646,2.77856692 31.5488873,2.53787879 C31.5409959,2.50631313 31.5311316,2.47277462 31.5192945,2.43726326 C31.5074574,2.40175189 31.5015388,2.36426768 31.5015388,2.32481061 C31.5015388,2.31691919 31.5035117,2.31100063 31.5074574,2.30705492 C31.6258286,2.24392361 31.7481455,2.19065657 31.8744081,2.14725379 C32.0006708,2.10385101 32.1289062,2.06439394 32.2591146,2.02888258 C32.3893229,1.99337121 32.5195312,1.9598327 32.6497396,1.92826705 C32.7799479,1.89670139 32.9081834,1.85921717 33.034446,1.81581439 C33.0383917,1.84343434 33.055161,1.85329861 33.0847538,1.8454072 C33.1143466,1.83751578 33.1330887,1.84343434 33.1409801,1.86316288 C33.1567629,1.82370581 33.1833965,1.79411301 33.2208807,1.77438447 C33.2583649,1.75465593 33.2997948,1.73887311 33.3451705,1.72703598 C33.3905461,1.71519886 33.4339489,1.70237532 33.4753788,1.68856534 C33.5168087,1.67475537 33.5533065,1.65601326 33.5848722,1.63233902 C33.6124921,1.65206755 33.6401121,1.66193182 33.667732,1.66193182 C33.7071891,1.66193182 33.7466461,1.65206755 33.7861032,1.63233902 C33.8255603,1.61261048 33.8650174,1.59682765 33.9044744,1.58499053 C33.9518229,1.61655619 33.9991714,1.64614899 34.0465199,1.67376894 C34.0938684,1.70138889 34.1372711,1.7349274 34.1767282,1.77438447 C34.192511,1.74281881 34.2161853,1.72111742 34.2477509,1.7092803 C34.2793166,1.69744318 34.3138415,1.68856534 34.3513258,1.68264678 C34.38881,1.67672822 34.4253078,1.67179609 34.4608191,1.66785038 C34.4963305,1.66390467 34.529869,1.65206755 34.5614347,1.63233902 C34.557489,1.55342487 34.5555161,1.47549716 34.5555161,1.39855587 C34.5555161,1.32161458 34.5377604,1.24960543 34.5022491,1.18252841 C34.4470092,1.17069129 34.4016335,1.15293561 34.3661222,1.12926136 C34.3306108,1.10558712 34.2970723,1.08092645 34.2655066,1.05527936 C34.233941,1.02963226 34.1984296,1.00793087 34.1589725,0.990175189 C34.1195155,0.972419508 34.0662484,0.963541667 33.9991714,0.963541667 C33.8847459,0.963541667 33.7752525,0.979324495 33.6706913,1.01089015 C33.5661301,1.04245581 33.4586095,1.05823864 33.3481297,1.05823864 L33.3481297,1.05823864 L33.3066998,1.05823864 C33.2948627,1.05823864 33.2830256,1.05626578 33.2711884,1.05232008 C33.2041114,1.09966856 33.1321023,1.13715278 33.055161,1.16477273 C32.9782197,1.19239268 32.900292,1.20620265 32.8213778,1.20620265 L32.8213778,1.20620265 L32.8036222,1.20620265 C32.7089252,1.26538826 32.6083097,1.30977746 32.5017756,1.33937027 C32.3952415,1.36896307 32.2867345,1.39461016 32.1762547,1.41631155 L32.0120147,1.4510831 L32.0120147,1.4510831 L31.8507339,1.49029356 C31.7441998,1.51791351 31.6435843,1.55737058 31.5488873,1.60866477 C31.5054845,1.60471907 31.4689867,1.60669192 31.4393939,1.61458333 C31.4098011,1.62247475 31.3811948,1.63233902 31.3535748,1.64417614 C31.3259549,1.65601326 31.2993213,1.66982323 31.2736742,1.68560606 C31.2480271,1.70138889 31.2194208,1.71125316 31.1878551,1.71519886 L31.1878551,1.71519886 L31.0635653,1.72703598 C31.000434,1.74281881 30.9382891,1.75958807 30.8771307,1.77734375 C30.8159722,1.79509943 30.7518545,1.80397727 30.6847775,1.80397727 C30.6413747,1.80397727 30.609809,1.80200442 30.5900805,1.79805871 C30.5585148,1.83357008 30.5160985,1.86119003 30.4628314,1.88091856 C30.4095644,1.9006471 30.3523516,1.91840278 30.2911932,1.93418561 C30.2300347,1.94996843 30.1698627,1.96772412 30.1106771,1.98745265 C30.0514915,2.00718119 30.0001973,2.03480114 29.9567945,2.0703125 C29.937066,2.04269255 29.9074732,2.02888258 29.8680161,2.02888258 C29.8167219,2.02888258 29.7644413,2.04367898 29.7111742,2.07327178 C29.6579072,2.10286458 29.6036537,2.11766098 29.5484138,2.11766098 C29.4971196,2.11766098 29.4576626,2.10187816 29.4300426,2.0703125 C29.398477,2.11371528 29.3550742,2.14528093 29.2998343,2.16500947 C29.2445944,2.18473801 29.1913273,2.19460227 29.1400331,2.19460227 C29.1163589,2.19460227 29.0926847,2.19262942 29.0690104,2.18868371 C29.0453362,2.18473801 29.0236348,2.17487374 29.0039062,2.15909091 C28.9960148,2.19460227 28.9762863,2.22222222 28.9447206,2.24195076 C28.913155,2.26167929 28.8786301,2.27647569 28.8411458,2.28633996 C28.8036616,2.29620423 28.7642045,2.3060685 28.7227746,2.31593277 C28.6813447,2.32579703 28.6468198,2.33862058 28.6191998,2.35440341 C28.5955256,2.34256629 28.5738242,2.33664773 28.5540956,2.33664773 C28.4870186,2.33664773 28.4219145,2.34848485 28.3587831,2.37215909 C28.2956518,2.39583333 28.2325205,2.40767045 28.1693892,2.40767045 C28.1496607,2.40767045 28.131905,2.40668403 28.1161222,2.40471117 C28.1003393,2.40273832 28.0825836,2.39977904 28.0628551,2.39583333 C27.9760496,2.43923611 27.9129182,2.50631313 27.8734612,2.59706439 C27.8340041,2.68781566 27.8142756,2.78251263 27.8142756,2.8811553 C27.8142756,2.95612374 27.8261127,3.03503788 27.8497869,3.11789773 C27.9287011,3.14946338 27.9977509,3.18300189 28.0569366,3.21851326 C28.1161222,3.25402462 28.1891177,3.27572601 28.2759233,3.28361742 C28.2877604,3.22048611 28.3153804,3.17905619 28.3587831,3.15932765 C28.4811001,3.14749053 28.6004577,3.12184343 28.7168561,3.08238636 C28.8332544,3.04292929 28.9486664,3.00051294 29.0630919,2.95513731 C29.1775174,2.90976168 29.2929293,2.86734533 29.4093277,2.82788826 C29.525726,2.78843119 29.6450836,2.76278409 29.7674006,2.75094697 C29.7634549,2.7114899 29.7762784,2.68781566 29.8058712,2.67992424 C29.835464,2.67203283 29.8640704,2.66216856 29.8916903,2.65033144 C29.9114189,2.65427715 29.9291746,2.65625 29.9449574,2.65625 L29.9449574,2.65625 L30.004143,2.65625 C30.0870028,2.65625 30.1698627,2.64441288 30.2527225,2.62073864 C30.3355824,2.59706439 30.4204151,2.58325442 30.5072206,2.57930871 C30.5269492,2.54379735 30.5595013,2.51716383 30.6048769,2.49940814 C30.6502525,2.48165246 30.6946417,2.47277462 30.7380445,2.47277462 C30.7696102,2.47277462 30.8051215,2.48066604 30.8445786,2.49644886 C30.8564157,2.55563447 30.8623343,2.61284722 30.8623343,2.66808712 C30.8623343,2.78251263 30.85247,2.8959517 30.8327415,3.00840436 C30.8130129,3.12085701 30.8031487,3.23232323 30.8031487,3.34280303 C30.7794744,3.3822601 30.7636916,3.42960859 30.7558002,3.48484848 C30.7479088,3.54008838 30.7439631,3.59631471 30.7439631,3.65352746 C30.7439631,3.71074021 30.7419902,3.76499369 30.7380445,3.81628788 C30.7340988,3.86758207 30.7222617,3.90901199 30.7025331,3.94057765 C30.6946417,4.16942866 30.6689946,4.39334754 30.6255919,4.61233428 C30.5821891,4.83132102 30.5506234,5.05326705 30.5308949,5.27817235 C30.5269492,5.30973801 30.5239899,5.3501815 30.522017,5.39950284 C30.5200442,5.44882418 30.5151121,5.49913194 30.5072206,5.55042614 C30.4993292,5.60172033 30.4884785,5.64906881 30.4746686,5.69247159 C30.4608586,5.73587437 30.4421165,5.76744003 30.4184422,5.78716856 C30.4263336,5.91737689 30.4263336,6.0465988 30.4184422,6.17483428 C30.4105508,6.30306976 30.4066051,6.43229167 30.4066051,6.5625 C30.4066051,6.70059975 30.4204151,6.83278093 30.448035,6.95904356 L30.448035,6.95904356 L30.448035,6.9827178 C30.448035,7.00244634 30.4391572,7.01724274 30.4214015,7.02710701 L30.4072627,7.03861532 C30.4002481,7.04738356 30.3980561,7.05834386 30.4006866,7.07149621 L30.4006866,7.07149621 L30.4006866,7.08333333 C30.4204151,7.09517045 30.4332386,7.11292614 30.4391572,7.13660038 C30.4450758,7.16027462 30.448035,7.18197601 30.448035,7.20170455 C30.448035,7.24905303 30.4381708,7.28653725 30.4184422,7.3141572 C30.4736821,7.34572285 30.5042614,7.39701705 30.5101799,7.46803977 C30.5160985,7.5390625 30.5230035,7.60219381 30.5308949,7.65743371 C30.5545691,7.70083649 30.5782434,7.73634785 30.6019176,7.7639678 C30.6255919,7.79158775 30.6354561,7.83301768 30.6315104,7.88825758 C30.6709675,7.91587753 30.7054924,7.9444839 30.7350852,7.9740767 C30.764678,8.00366951 30.7873658,8.03819444 30.8031487,8.07765152 C30.8189315,8.08554293 30.8327415,8.09047506 30.8445786,8.09244792 C30.8564157,8.09442077 30.8702257,8.0954072 30.8860085,8.0954072 Z M38.8950047,9.11931818 C38.9620818,9.09564394 39.0104167,9.05421402 39.0400095,8.99502841 C39.0696023,8.9358428 39.0843987,8.87271149 39.0843987,8.80563447 C39.0843987,8.7661774 39.0784801,8.72474747 39.066643,8.6813447 C39.0232402,8.64977904 38.9837831,8.62018624 38.9482718,8.59256629 C38.9127604,8.56494634 38.8950047,8.52154356 38.8950047,8.46235795 L38.8950047,8.46235795 L38.8950047,8.42684659 C38.8673848,8.41895518 38.8407513,8.41205019 38.8151042,8.40613163 C38.7894571,8.40021307 38.7608507,8.39725379 38.729285,8.39725379 C38.6937737,8.35779672 38.6651673,8.31439394 38.6434659,8.26704545 C38.6217645,8.21969697 38.6030224,8.17037563 38.5872396,8.11908144 C38.5714568,8.06778725 38.5556739,8.01747948 38.5398911,7.96815814 C38.5241083,7.91883681 38.5024069,7.87050189 38.4747869,7.82315341 C38.4708412,7.74029356 38.4629498,7.64855587 38.4511127,7.54794034 C38.4392756,7.44732481 38.4175742,7.35558712 38.3860085,7.27272727 C38.3938999,7.00047348 38.3988321,6.72920612 38.4008049,6.45892519 C38.4027778,6.18864426 38.4215199,5.91737689 38.4570312,5.64512311 C38.5122711,5.59777462 38.5803346,5.56226326 38.6612216,5.53858902 C38.7421086,5.51491477 38.8279277,5.49617266 38.918679,5.48236269 C39.0094302,5.46855271 39.1001815,5.45868845 39.1909328,5.45276989 C39.281684,5.44685133 39.362571,5.43994634 39.4335938,5.43205492 C39.4809422,5.46362058 39.5194129,5.48532197 39.5490057,5.49715909 C39.5785985,5.50899621 39.6249605,5.51491477 39.6880919,5.51491477 C39.7827888,5.51491477 39.861703,5.49321338 39.9248343,5.44981061 C39.9879656,5.40640783 40.0412326,5.34327652 40.0846354,5.26041667 C40.0885811,5.24857955 40.090554,5.23674242 40.090554,5.2249053 L40.090554,5.2249053 L40.090554,5.18347538 C40.090554,5.1400726 40.0885811,5.09666982 40.0846354,5.05326705 C40.0806897,5.00986427 40.0747711,4.96646149 40.0668797,4.92305871 C40.023477,4.86387311 39.9603456,4.8342803 39.8774858,4.8342803 C39.8183002,4.8342803 39.7581282,4.845131 39.6969697,4.86683239 C39.6358112,4.88853378 39.5756392,4.90727588 39.5164536,4.92305871 C39.457268,4.93489583 39.3980824,4.94180082 39.3388968,4.94377367 C39.2797112,4.94574653 39.2205256,4.94673295 39.16134,4.94673295 C39.0705887,4.94673295 38.9739189,4.94574653 38.8713305,4.94377367 C38.7687421,4.94180082 38.6720723,4.95462437 38.581321,4.98224432 C38.5892124,4.95067866 38.5823074,4.93390941 38.5606061,4.93193655 C38.5389047,4.9299637 38.5241083,4.91911301 38.5162169,4.89938447 C38.5398911,4.82836174 38.5537011,4.75536616 38.5576468,4.68039773 L38.5576468,4.68039773 L38.5694839,4.44957386 C38.5734296,4.37065972 38.5793482,4.29470486 38.5872396,4.22170928 C38.595131,4.1487137 38.6128867,4.07670455 38.6405066,4.00568182 C38.6326152,3.9386048 38.6385338,3.87054135 38.6582623,3.80149148 C38.6779908,3.7324416 38.6878551,3.6624053 38.6878551,3.59138258 C38.6878551,3.55587121 38.6819366,3.51641414 38.6700994,3.47301136 C38.7016651,3.34674874 38.7302715,3.22048611 38.7559186,3.09422348 C38.7815657,2.96796086 38.8003078,2.83972538 38.8121449,2.70951705 C38.8160906,2.65033144 38.8190499,2.58424085 38.8210227,2.51124527 C38.8229956,2.43824968 38.8269413,2.36624053 38.8328598,2.2952178 C38.8387784,2.22419508 38.8496291,2.1551452 38.8654119,2.08806818 C38.8811948,2.02099116 38.9068419,1.9598327 38.9423532,1.9045928 C38.9344618,1.86513573 38.9265704,1.82666509 38.918679,1.78918087 C38.9107876,1.75169665 38.9068419,1.71125316 38.9068419,1.66785038 C38.9068419,1.61261048 38.9098011,1.56032986 38.9157197,1.51100852 C38.9216383,1.46168718 38.9245975,1.40940657 38.9245975,1.35416667 C38.9245975,1.27525253 38.9147333,1.19041982 38.8950047,1.09966856 C38.8594934,1.05626578 38.8151042,1.02272727 38.7618371,0.99905303 C38.7085701,0.975378788 38.6523438,0.963541667 38.5931581,0.963541667 C38.4787326,0.963541667 38.3968592,0.998066604 38.3475379,1.06711648 C38.2982165,1.13616635 38.2735559,1.22198548 38.2735559,1.32457386 C38.2735559,1.3995423 38.2775016,1.47648359 38.285393,1.55539773 C38.2932844,1.63431187 38.3070944,1.70730745 38.3268229,1.77438447 C38.2834201,1.80200442 38.2617188,1.83948864 38.2617188,1.88683712 C38.2617188,1.92234848 38.2607323,1.95292771 38.2587595,1.97857481 C38.2567866,2.00422191 38.2518545,2.03480114 38.2439631,2.0703125 C38.2400174,2.07425821 38.2400174,2.07820391 38.2439631,2.08214962 C38.2439631,2.11371528 38.2498816,2.14133523 38.2617188,2.16500947 C38.2735559,2.18868371 38.2814473,2.21433081 38.285393,2.24195076 C38.2617188,2.27351641 38.2459359,2.30804135 38.2380445,2.34552557 C38.2301531,2.38300979 38.225221,2.42148043 38.2232481,2.4609375 C38.2212753,2.50039457 38.218316,2.53985164 38.2143703,2.57930871 C38.2104246,2.61876578 38.1985874,2.65625 38.1788589,2.69176136 C38.1749132,2.68781566 38.1699811,2.68682923 38.1640625,2.68880208 C38.1581439,2.69077494 38.1551847,2.69570707 38.1551847,2.70359848 C38.1551847,2.71543561 38.1660354,2.72529987 38.1877367,2.73319129 C38.2094381,2.7410827 38.2202888,2.75489268 38.2202888,2.77462121 C38.2202888,2.79434975 38.2153567,2.81605114 38.2054924,2.83972538 C38.1956282,2.86339962 38.1867503,2.88707386 38.1788589,2.91074811 C38.1591304,2.97387942 38.1433475,3.03898359 38.1315104,3.10606061 L38.1315104,3.10606061 L38.0959991,3.30729167 C38.0762705,3.4375 38.0604877,3.56869476 38.0486506,3.70087595 C38.0368134,3.83305713 38.0230035,3.96425189 38.0072206,4.09446023 C37.9914378,4.22466856 37.9726957,4.35586332 37.9509943,4.48804451 C37.9292929,4.62022569 37.8987137,4.75142045 37.8592566,4.88162879 C37.8710938,4.91319444 37.8770123,4.9447601 37.8770123,4.97632576 C37.8770123,5.03156566 37.8632023,5.0848327 37.8355824,5.13612689 C37.476523,5.19136679 37.1194366,5.25647096 36.7643229,5.33143939 C36.4092093,5.40640783 36.0521228,5.45967487 35.6930634,5.49124053 C35.685172,5.46756629 35.6812263,5.44783775 35.6812263,5.43205492 C35.6812263,5.40048927 35.6861585,5.37089646 35.6960227,5.34327652 C35.705887,5.31565657 35.712792,5.28803662 35.7167377,5.26041667 C35.7246291,5.17361111 35.7256155,5.08779198 35.719697,5.00295928 C35.7137784,4.91812658 35.7187105,4.8342803 35.7344934,4.75142045 C35.7423848,4.72380051 35.7532355,4.69913984 35.7670455,4.67743845 C35.7808554,4.65573706 35.7917061,4.62910354 35.7995975,4.59753788 C35.8193261,4.51467803 35.8301768,4.42787247 35.8321496,4.33712121 C35.8341225,4.24636995 35.8370818,4.15561869 35.8410275,4.06486742 C35.8449732,4.00962753 35.8548374,3.9534012 35.8706203,3.89618845 C35.8864031,3.83897569 35.8982402,3.78274937 35.9061316,3.72750947 C35.914023,3.67226957 35.9169823,3.60519255 35.9150095,3.52627841 C35.9130366,3.44736427 35.9238873,3.38028725 35.9475616,3.32504735 C35.9396701,3.17511048 35.9455887,3.02714646 35.9653172,2.8811553 C35.9850458,2.73516414 35.99491,2.58917298 35.99491,2.44318182 C35.99491,2.34453914 35.9870186,2.25773359 35.9712358,2.18276515 C36.02253,2.0999053 36.0481771,2.01309975 36.0481771,1.92234848 C36.0481771,1.80397727 36.0077336,1.70336174 35.9268466,1.62050189 C35.8459596,1.53764205 35.7463305,1.49818497 35.6279593,1.50213068 C35.5924479,1.52580492 35.5618687,1.55539773 35.5362216,1.59090909 C35.5105745,1.62642045 35.4780224,1.6540404 35.4385653,1.67376894 C35.442511,1.72111742 35.4415246,1.76846591 35.4356061,1.81581439 C35.4296875,1.86316288 35.4267282,1.91051136 35.4267282,1.95785985 C35.4267282,2.01704545 35.4385653,2.07820391 35.4622396,2.14133523 C35.4148911,2.27943497 35.3912169,2.42345328 35.3912169,2.57339015 C35.3912169,2.68781566 35.4069997,2.79040404 35.4385653,2.8811553 C35.3991083,3.00347222 35.368529,3.12677557 35.3468277,3.25106534 C35.3251263,3.37535511 35.3063842,3.50063131 35.2906013,3.62689394 L35.2906013,3.62689394 L35.2846828,3.63873106 C35.2846828,3.6584596 35.2925742,3.673256 35.308357,3.68312027 C35.3241398,3.69298453 35.3320312,3.70778093 35.3320312,3.72750947 L35.3320312,3.72750947 L35.3320312,3.75118371 C35.3320312,3.82220644 35.329072,3.89125631 35.3231534,3.95833333 C35.3172348,4.02541035 35.3044113,4.09643308 35.2846828,4.17140152 C35.2728456,4.21875 35.2590357,4.27004419 35.2432528,4.32528409 L35.2287852,4.37855114 C35.220017,4.41274726 35.2130024,4.44431292 35.2077415,4.47324811 C35.2037958,4.50086806 35.2018229,4.52848801 35.2018229,4.55610795 L35.2018229,4.55610795 L35.2018229,4.6389678 C35.1939315,4.72971907 35.181108,4.82441604 35.1633523,4.92305871 C35.1455966,5.02170139 35.1090988,5.11245265 35.0538589,5.1953125 C35.0617503,5.26238952 35.0607639,5.32650726 35.0508996,5.38766572 C35.0410354,5.44882418 35.0282118,5.51096907 35.012429,5.57410038 C34.9729719,5.58199179 34.9335148,5.59185606 34.8940578,5.60369318 C34.8546007,5.6155303 34.8151436,5.62144886 34.7756866,5.62144886 C34.7362295,5.62144886 34.702691,5.61355745 34.675071,5.59777462 C34.6711253,5.64906881 34.6474511,5.68063447 34.6040483,5.69247159 C34.5606455,5.70430871 34.5211884,5.71614583 34.4856771,5.72798295 C34.47384,5.77138573 34.4679214,5.81281566 34.4679214,5.85227273 C34.4679214,5.93118687 34.4837042,6.00714173 34.5152699,6.08013731 C34.5468355,6.15313289 34.5862926,6.21922348 34.6336411,6.27840909 C34.6770439,6.29024621 34.7214331,6.29419192 34.7668087,6.29024621 C34.8121843,6.28630051 34.8526278,6.30208333 34.8881392,6.3375947 C34.8802478,6.50331439 34.8703835,6.66410196 34.8585464,6.81995739 C34.8467093,6.97581282 34.8407907,7.13462753 34.8407907,7.29640152 C34.8407907,7.38320707 34.8427636,7.46803977 34.8467093,7.55089962 C34.850655,7.63375947 34.8565735,7.71859217 34.864465,7.80539773 C34.8920849,7.8448548 34.9157592,7.88825758 34.9354877,7.93560606 C34.9552162,7.98295455 34.9739583,8.03128946 34.991714,8.0806108 C35.0094697,8.12993213 35.0272254,8.17728062 35.0449811,8.22265625 C35.0627367,8.26803188 35.0873974,8.30452967 35.1189631,8.33214962 C35.1308002,8.34398674 35.1455966,8.35385101 35.1633523,8.36174242 C35.181108,8.36963384 35.1978772,8.37653883 35.21366,8.38245739 C35.2294429,8.38837595 35.2422664,8.39824021 35.2521307,8.41205019 C35.2619949,8.42586016 35.2669271,8.44460227 35.2669271,8.46827652 C35.3261127,8.46433081 35.3843119,8.46235795 35.4415246,8.46235795 C35.4987374,8.46235795 35.5559501,8.4603851 35.6131629,8.45643939 C35.6703756,8.45249369 35.726602,8.4455887 35.7818419,8.43572443 C35.8370818,8.42586016 35.8923217,8.40711806 35.9475616,8.37949811 C35.9396701,8.34398674 35.9386837,8.3203125 35.9446023,8.30847538 C35.9505208,8.29663826 35.9593987,8.28973327 35.9712358,8.28776042 C35.9830729,8.28578756 35.9958965,8.28480114 36.0097064,8.28480114 C36.0235164,8.28480114 36.0383128,8.28085543 36.0540956,8.27296402 C36.0619871,8.2098327 36.0817156,8.15163352 36.1132812,8.09836648 C36.1448469,8.04509943 36.1685211,7.99084596 36.184304,7.93560606 C36.1132812,7.92376894 36.0462042,7.90108112 35.9830729,7.86754261 C35.9199416,7.8340041 35.8528646,7.81723485 35.7818419,7.81723485 C35.7384391,7.81723485 35.6871449,7.82709912 35.6279593,7.84682765 C35.5727194,7.81131629 35.5312895,7.76988636 35.5036695,7.72253788 C35.5155066,7.70675505 35.5214252,7.68505366 35.5214252,7.65743371 C35.5214252,7.62586806 35.5125473,7.59726168 35.4947917,7.57161458 C35.477036,7.54596749 35.4661853,7.51736111 35.4622396,7.48579545 C35.4543482,7.43844697 35.4504025,7.38912563 35.4504025,7.33783144 L35.4504025,7.33783144 L35.4504025,7.19578598 C35.4504025,7.03401199 35.4582939,6.87519729 35.4740767,6.71934186 C35.4898595,6.56348643 35.5135338,6.40861742 35.5450994,6.25473485 C35.6753078,6.22316919 35.8055161,6.1866714 35.9357244,6.14524148 C36.0659328,6.10381155 36.1971275,6.06534091 36.3293087,6.02982955 C36.4614899,5.99431818 36.5946575,5.96373895 36.7288116,5.93809186 C36.8629656,5.91244476 36.9971196,5.89962121 37.1312737,5.89962121 C37.1746765,5.85621843 37.2249842,5.8256392 37.282197,5.80788352 C37.3394097,5.79012784 37.3976089,5.78125 37.4567945,5.78125 L37.4567945,5.78125 L37.5100616,5.78125 C37.5258444,5.78125 37.5436001,5.78322285 37.5633286,5.78716856 L37.5633286,5.78716856 L37.652107,5.74573864 C37.679727,5.72995581 37.7132655,5.72206439 37.7527225,5.72206439 C37.7724511,5.72206439 37.786261,5.72403725 37.7941525,5.72798295 L37.7941525,5.72798295 L37.7704782,5.91737689 C37.7625868,5.98050821 37.7586411,6.04561237 37.7586411,6.11268939 C37.7586411,6.15609217 37.7625868,6.19850852 37.7704782,6.23993845 C37.7783696,6.28136837 37.7941525,6.32181187 37.8178267,6.36126894 C37.786261,6.41256313 37.7665325,6.46484375 37.7586411,6.5181108 C37.7507497,6.57137784 37.746804,6.62563131 37.746804,6.68087121 C37.746804,6.7321654 37.7487768,6.78444602 37.7527225,6.83771307 C37.7566682,6.89098011 37.7586411,6.94523359 37.7586411,7.00047348 C37.7586411,7.07938763 37.7507497,7.15041035 37.7349669,7.21354167 C37.7546954,7.32402146 37.7763968,7.43154198 37.800071,7.53610322 C37.8237453,7.64066446 37.8355824,7.75015783 37.8355824,7.86458333 C37.8868766,7.94349747 37.9204151,8.03720802 37.9361979,8.14571496 C37.9519807,8.25422191 37.9697364,8.35385101 37.989465,8.44460227 C38.0328677,8.47222222 38.0654198,8.50970644 38.0871212,8.55705492 C38.1088226,8.60440341 38.1196733,8.6556976 38.1196733,8.7109375 C38.1196733,8.74250316 38.1177004,8.7661774 38.1137547,8.78196023 C38.176886,8.77406881 38.2301531,8.79379735 38.2735559,8.84114583 C38.3169586,8.88849432 38.3485243,8.93978851 38.3682528,8.99502841 C38.3958728,8.9910827 38.4185606,8.99305556 38.4363163,9.00094697 C38.454072,9.00883838 38.4708412,9.01870265 38.4866241,9.03053977 C38.5024069,9.04237689 38.5172033,9.05520044 38.5310133,9.06901042 C38.5448232,9.08282039 38.5615925,9.09367109 38.581321,9.1015625 C38.6128867,9.09367109 38.6424795,9.08972538 38.6700994,9.08972538 C38.7095565,9.08972538 38.7470407,9.09465751 38.7825521,9.10452178 C38.8180634,9.11438605 38.8555477,9.11931818 38.8950047,9.11931818 Z M43.0806108,9.81770833 C43.1713621,9.81770833 43.2601405,9.80587121 43.346946,9.78219697 C43.4337516,9.75852273 43.5185843,9.73682134 43.6014441,9.7170928 C43.6251184,9.68552715 43.6458333,9.65988005 43.663589,9.64015152 C43.6813447,9.62042298 43.7119239,9.61055871 43.7553267,9.61055871 L43.7553267,9.61055871 L43.7730824,9.61055871 C43.7967566,9.56321023 43.832268,9.52769886 43.8796165,9.50402462 C43.926965,9.48035038 43.9762863,9.46062184 44.0275805,9.44483902 C44.1025489,9.36197917 44.1834359,9.28405145 44.2702415,9.21105587 C44.357047,9.13806029 44.4438526,9.06605114 44.5306581,8.99502841 C44.6174637,8.92400568 44.7022964,8.85298295 44.7851563,8.78196023 C44.8680161,8.7109375 44.9469302,8.63399621 45.0218987,8.55113636 C45.0613557,8.55902778 45.0840436,8.55310922 45.0899621,8.53338068 C45.0958807,8.51365215 45.1126499,8.50378788 45.1402699,8.50378788 L45.1402699,8.50378788 L45.1461884,8.50970644 C45.2172112,8.42684659 45.2872475,8.3499053 45.3562973,8.27888258 C45.4253472,8.20785985 45.5131392,8.1545928 45.6196733,8.11908144 C45.6275647,8.0954072 45.6394018,8.07370581 45.6551847,8.05397727 C45.6709675,8.03424874 45.6887232,8.0145202 45.7084517,7.99479167 C45.7755287,7.9553346 45.845565,7.91785038 45.9185606,7.88233902 C45.9915562,7.84682765 46.067511,7.81328914 46.1464252,7.78172348 C46.1700994,7.73042929 46.2016651,7.68801294 46.2411222,7.65447443 C46.2805792,7.62093592 46.3220092,7.59232955 46.3654119,7.5686553 C46.4088147,7.54498106 46.4541903,7.52229324 46.5015388,7.50059186 C46.5488873,7.47889047 46.5942629,7.4542298 46.6376657,7.42660985 C46.6534485,7.41477273 46.6712042,7.3989899 46.6909328,7.37926136 L46.6909328,7.37926136 L46.7501184,7.32007576 C46.7698469,7.30034722 46.788589,7.28357797 46.8063447,7.26976799 C46.8241004,7.25595802 46.8428425,7.24905303 46.862571,7.24905303 C46.8704624,7.24905303 46.8753946,7.25003946 46.8773674,7.25201231 C46.8793403,7.25398516 46.8842724,7.25497159 46.8921638,7.25497159 C46.876381,7.17211174 46.8665167,7.08826547 46.862571,7.00343277 C46.8586253,6.91860006 46.8329782,6.83869949 46.7856297,6.76373106 C46.7698469,6.77162247 46.7530777,6.77655461 46.735322,6.77852746 C46.7175663,6.78050032 46.6988242,6.78148674 46.6790956,6.78148674 C46.6159643,6.78148674 46.552833,6.77754104 46.4897017,6.76964962 L46.4897017,6.76964962 L46.3003078,6.74597538 C46.2884706,6.78937816 46.2726878,6.82982165 46.2529593,6.86730587 C46.2332307,6.90479009 46.2115294,6.94128788 46.1878551,6.97679924 C46.1444523,6.96890783 46.1168324,6.97482639 46.1049953,6.99455492 C46.0931581,7.01428346 46.0714568,7.02414773 46.0398911,7.02414773 C46.0319997,7.02414773 46.0260811,7.02217487 46.0221354,7.01822917 C45.9274384,7.12476326 45.8228772,7.2184738 45.7084517,7.2993608 C45.5940262,7.38024779 45.4796007,7.46212121 45.3651752,7.54498106 C45.3296638,7.57260101 45.293166,7.60120739 45.2556818,7.63080019 C45.2181976,7.66039299 45.1836727,7.69097222 45.152107,7.72253788 L45.152107,7.72253788 L45.0633286,7.80539773 C45.0475458,7.82118056 45.0238715,7.82907197 44.9923059,7.82907197 C44.9804688,7.82907197 44.9706045,7.82709912 44.9627131,7.82315341 C44.9469302,7.88628472 44.9173374,7.93363321 44.8739347,7.96519886 C44.8305319,7.99676452 44.8029119,8.04214015 44.7910748,8.10132576 C44.7437263,8.10921717 44.7042693,8.12401357 44.6727036,8.14571496 C44.6411379,8.16741635 44.613518,8.19404987 44.5898438,8.22561553 C44.5661695,8.25718119 44.5444681,8.2907197 44.5247396,8.32623106 C44.505011,8.36174242 44.4813368,8.39528093 44.4537169,8.42684659 L44.4537169,8.42684659 L44.3412642,8.42684659 C44.2386758,8.49786932 44.1429924,8.57974274 44.054214,8.67246686 C43.9654356,8.76519097 43.8736979,8.85199653 43.7790009,8.93288352 C43.684304,9.01377052 43.582702,9.08183396 43.4741951,9.13707386 C43.3656881,9.19231376 43.2404119,9.21993371 43.0983665,9.21993371 C43.0746922,9.21993371 43.0520044,9.21894729 43.030303,9.21697443 C43.0086016,9.21500158 42.9878867,9.2120423 42.9681581,9.20809659 C42.9444839,9.12523674 42.9040404,9.05125473 42.8468277,8.98615057 C42.7896149,8.9210464 42.7511443,8.84706439 42.7314157,8.76420455 C42.7116872,8.69712753 42.6978772,8.6261048 42.6899858,8.55113636 C42.6820944,8.47616793 42.674203,8.40218592 42.6663116,8.32919034 C42.6584201,8.25619476 42.6485559,8.18418561 42.6367188,8.11316288 C42.6248816,8.04214015 42.6071259,7.97506313 42.5834517,7.91193182 C42.6308002,7.74226641 42.6623658,7.55583176 42.6781487,7.35262784 C42.6939315,7.14942393 42.7107008,6.94523359 42.7284564,6.74005682 C42.7462121,6.53488005 42.7748185,6.3375947 42.8142756,6.14820076 C42.8537326,5.95880682 42.9247554,5.79111427 43.0273438,5.64512311 C43.0786379,5.63328598 43.1259864,5.61355745 43.1693892,5.5859375 L43.1693892,5.5859375 L43.2995975,5.50307765 C43.3430003,5.4754577 43.3864031,5.45079703 43.4298059,5.42909564 C43.4732086,5.40739426 43.52253,5.39654356 43.5777699,5.39654356 C43.6014441,5.39654356 43.6290641,5.40048927 43.6606297,5.40838068 C43.6961411,5.34919508 43.7543403,5.30875158 43.8352273,5.28705019 C43.9161143,5.2653488 43.9881234,5.25449811 44.0512547,5.25449811 L44.0512547,5.25449811 L44.0867661,5.25449811 C44.1025489,5.25449811 44.1163589,5.25647096 44.128196,5.26041667 C44.1479246,5.2209596 44.1765309,5.19333965 44.2140152,5.17755682 C44.2514994,5.16177399 44.2909564,5.14895044 44.3323864,5.13908617 L44.3930516,5.12207031 L44.3930516,5.12207031 L44.4507576,5.10061553 C44.4882418,5.0848327 44.5168482,5.05918561 44.5365767,5.02367424 C44.5484138,5.02761995 44.5701152,5.0295928 44.6016809,5.0295928 C44.680595,5.0295928 44.7516177,5.01183712 44.8147491,4.97632576 C44.8778804,4.94081439 44.9429845,4.92305871 45.0100616,4.92305871 C45.0376815,4.92305871 45.0633286,4.92897727 45.0870028,4.94081439 C45.09884,4.91319444 45.1165956,4.89247948 45.1402699,4.87866951 C45.1639441,4.86485953 45.1895912,4.85400884 45.2172112,4.84611742 L45.2172112,4.84611742 L45.3059896,4.81652462 C45.3375552,4.8046875 45.3632023,4.78890467 45.3829309,4.76917614 C45.5170849,4.75733902 45.6482797,4.72873264 45.7765152,4.68335701 C45.9047506,4.63798138 46.0310133,4.58964646 46.155303,4.53835227 C46.2795928,4.48705808 46.4058554,4.44168245 46.5340909,4.40222538 C46.6623264,4.36276831 46.795494,4.34303977 46.9335938,4.34303977 C46.9375395,4.31541982 46.9474037,4.29371843 46.9631866,4.27793561 C46.9789694,4.26215278 46.9967251,4.24636995 47.0164536,4.23058712 C47.0361821,4.21480429 47.0539378,4.19803504 47.0697206,4.18027936 C47.0855035,4.16252367 47.0973406,4.13786301 47.105232,4.10629735 C47.0815578,4.06684028 47.0618292,4.02541035 47.0460464,3.98200758 C47.0302636,3.9386048 47.010535,3.89717487 46.9868608,3.8577178 C46.9631866,3.81826073 46.9345802,3.78472222 46.9010417,3.75710227 C46.8675032,3.72948232 46.823114,3.71369949 46.7678741,3.70975379 C46.7323627,3.74131944 46.6919192,3.76400726 46.6465436,3.77781723 C46.6011679,3.79162721 46.5548059,3.8024779 46.5074574,3.81036932 C46.4601089,3.81826073 46.4127604,3.828125 46.3654119,3.83996212 C46.3180634,3.85179924 46.2746607,3.87152778 46.2352036,3.89914773 C46.2154751,3.89914773 46.1987058,3.8981613 46.1848958,3.89618845 C46.1710859,3.89421559 46.1562895,3.89322917 46.1405066,3.89322917 C46.108941,3.89322917 46.0793482,3.8981613 46.0517282,3.90802557 C46.0241083,3.91788984 46.000434,3.93663194 45.9807055,3.96425189 C45.9017914,3.95636048 45.8169586,3.9681976 45.7262074,3.99976326 C45.6354561,4.03132891 45.556542,4.06684028 45.489465,4.10629735 C45.4657907,4.09446023 45.4361979,4.08854167 45.4006866,4.08854167 C45.3533381,4.08854167 45.3059896,4.10235164 45.2586411,4.12997159 C45.2112926,4.15759154 45.1678898,4.18718434 45.1284328,4.21875 C44.9982244,4.23847854 44.8709754,4.26807134 44.7466856,4.30752841 C44.6223958,4.34698548 44.5010653,4.39236111 44.3826941,4.4436553 C44.3392914,4.46338384 44.2939157,4.4840988 44.2465672,4.50580019 C44.1992188,4.52750158 44.1538431,4.54427083 44.1104403,4.55610795 C44.0552004,4.57583649 43.9989741,4.58964646 43.9417614,4.59753788 C43.8845486,4.60542929 43.8283223,4.61923927 43.7730824,4.6389678 C43.6626026,4.67053346 43.5531092,4.70604482 43.4446023,4.74550189 C43.3360953,4.78495896 43.2246291,4.82047033 43.1102036,4.85203598 C43.1102036,4.82441604 43.1092172,4.79778251 43.1072443,4.77213542 C43.1052715,4.74648832 43.104285,4.71788194 43.104285,4.68631629 C43.104285,4.60345644 43.1102036,4.51665088 43.1220407,4.42589962 C43.1338778,4.33514836 43.1595249,4.25228851 43.198982,4.17732008 L43.198982,4.17732008 L43.198982,3.89914773 C43.2700047,3.74921086 43.3193261,3.592369 43.346946,3.42862216 C43.374566,3.26487532 43.4100773,3.10408775 43.4534801,2.94625947 C43.6428741,2.83183396 43.8401594,2.73516414 44.0453362,2.65625 C44.2505129,2.57733586 44.4537169,2.49644886 44.6549479,2.41358902 C44.7575363,2.37018624 44.856179,2.32481061 44.9508759,2.27746212 C45.0455729,2.23011364 45.1402699,2.18473801 45.2349669,2.14133523 C45.2389126,2.13738952 45.246804,2.13541667 45.2586411,2.13541667 C45.2744239,2.13541667 45.286261,2.13936237 45.2941525,2.14725379 C45.3020439,2.1551452 45.313881,2.15909091 45.3296638,2.15909091 L45.3296638,2.15909091 L45.3415009,2.15909091 C45.3612295,2.13147096 45.3868766,2.10976957 45.4184422,2.09398674 C45.4500079,2.07820391 45.4835464,2.06340751 45.5190578,2.04959754 C45.5545691,2.03578756 45.5890941,2.02099116 45.6226326,2.00520833 C45.6561711,1.98942551 45.6847775,1.96969697 45.7084517,1.94602273 C45.799203,1.93418561 45.8840357,1.91051136 45.9629498,1.875 C46.041864,1.83948864 46.1197917,1.80200442 46.196733,1.76254735 C46.2736742,1.72309028 46.351602,1.68560606 46.4305161,1.6500947 C46.5094302,1.61458333 46.5922901,1.59288194 46.6790956,1.58499053 C46.7106613,1.54158775 46.7520912,1.50903567 46.8033854,1.48733428 C46.8546796,1.46563289 46.9099195,1.44689078 46.9691051,1.43110795 C47.0282907,1.41532513 47.0855035,1.39756944 47.1407434,1.37784091 C47.1959833,1.35811237 47.2413589,1.32851957 47.2768703,1.2890625 C47.3321102,1.28511679 47.3853772,1.27327967 47.4366714,1.25355114 C47.4879656,1.2338226 47.5372869,1.21212121 47.5846354,1.18844697 C47.6319839,1.16477273 47.6803188,1.14307134 47.7296402,1.1233428 C47.7789615,1.10361427 47.8312421,1.08783144 47.886482,1.07599432 C47.914102,1.09572285 47.9456676,1.10755997 47.981179,1.11150568 C48.0166903,1.11545139 48.0502289,1.1193971 48.0817945,1.1233428 C48.0778488,1.11545139 48.0758759,1.09966856 48.0758759,1.07599432 C48.0758759,1.05626578 48.0827809,1.04344223 48.0965909,1.03752367 C48.1104009,1.03160511 48.1271701,1.02864583 48.1468987,1.02864583 C48.1666272,1.02864583 48.1932607,1.03061869 48.2267992,1.03456439 C48.2603378,1.0385101 48.2830256,1.03061869 48.2948627,1.01089015 C48.2988084,0.979324495 48.3017677,0.945785985 48.3037405,0.910274621 C48.3057134,0.874763258 48.3066998,0.839251894 48.3066998,0.80374053 C48.3066998,0.784011995 48.3057134,0.762310606 48.3037405,0.738636364 C48.3017677,0.714962121 48.2988084,0.693260732 48.2948627,0.673532197 C48.2277857,0.677477904 48.1843829,0.657749369 48.1646544,0.614346591 C48.1449258,0.570943813 48.1232244,0.527541035 48.0995502,0.484138258 C48.0561474,0.484138258 48.0137311,0.479206124 47.9723011,0.469341856 C47.9308712,0.459477588 47.8884549,0.450599747 47.8450521,0.442708333 C47.7306266,0.525568182 47.6112689,0.591658775 47.4869792,0.640980114 C47.3626894,0.690301452 47.2275489,0.722853535 47.0815578,0.738636364 C47.0815578,0.766256313 47.0726799,0.785984848 47.0549242,0.79782197 C47.0371686,0.809659091 47.0184265,0.825441919 46.9986979,0.845170455 C46.9908065,0.841224747 46.9839015,0.83727904 46.977983,0.833333333 C46.9720644,0.829387626 46.9651594,0.827414773 46.957268,0.827414773 C46.929648,0.827414773 46.9040009,0.838265467 46.8803267,0.859966856 C46.8566525,0.881668245 46.8329782,0.8984375 46.809304,0.910274621 C46.7895754,0.894491793 46.7639283,0.886600379 46.7323627,0.886600379 C46.6968513,0.886600379 46.66134,0.894491793 46.6258286,0.910274621 C46.5903172,0.926057449 46.5548059,0.943813131 46.5192945,0.963541667 C46.4837831,0.983270202 46.4472854,1.00102588 46.4098011,1.01680871 C46.3723169,1.03259154 46.3358191,1.04048295 46.3003078,1.04048295 C46.2726878,1.04048295 46.2509864,1.0385101 46.2352036,1.03456439 C46.2194208,1.05429293 46.2105429,1.07796717 46.2085701,1.10558712 C46.2065972,1.13320707 46.1937737,1.15293561 46.1700994,1.16477273 C46.1700994,1.15688131 46.1681266,1.14701705 46.1641809,1.13517992 C46.1602352,1.1233428 46.1523438,1.11742424 46.1405066,1.11742424 C46.1326152,1.11742424 46.1286695,1.1193971 46.1286695,1.1233428 C46.014244,1.1785827 45.9106692,1.22691761 45.8179451,1.26834754 C45.725221,1.30977746 45.6157276,1.34627525 45.489465,1.37784091 C45.4934107,1.39362374 45.4934107,1.41137942 45.489465,1.43110795 C45.4855193,1.45083649 45.4697364,1.46070076 45.4421165,1.46070076 C45.4342251,1.46070076 45.4243608,1.45971433 45.4125237,1.45774148 C45.4006866,1.45576862 45.3908223,1.4547822 45.3829309,1.4547822 C45.3355824,1.4547822 45.2911932,1.46267361 45.2497633,1.47845644 C45.2083333,1.49423927 45.1698627,1.51100852 45.1343513,1.5287642 C45.09884,1.54651989 45.0623422,1.56328914 45.024858,1.57907197 C44.9873737,1.5948548 44.9489031,1.60274621 44.909446,1.60274621 C44.8818261,1.60274621 44.856179,1.59682765 44.8325047,1.58499053 C44.7851563,1.62050189 44.7348485,1.64910827 44.6815814,1.67080966 C44.6283144,1.69251105 44.5740609,1.71322601 44.518821,1.73295455 L44.4374408,1.76328717 L44.4374408,1.76328717 L44.3590199,1.79509943 C44.3077257,1.81680082 44.2603772,1.84738005 44.2169744,1.88683712 L44.2169744,1.88683712 L44.1933002,1.88683712 C44.1775174,1.88683712 44.1646938,1.88289141 44.1548295,1.875 C44.1449653,1.86710859 44.1341146,1.86316288 44.1222775,1.86316288 L44.1222775,1.86316288 L44.1104403,1.86316288 C44.0907118,1.91840278 44.0561869,1.96180556 44.0068655,1.99337121 C43.9575442,2.02493687 43.9032907,2.0407197 43.8441051,2.0407197 C43.8085938,2.0407197 43.7711095,2.03085543 43.7316525,2.01112689 C43.7395439,1.94799558 43.7395439,1.88782355 43.7316525,1.8306108 C43.723761,1.77339804 43.7158696,1.71322601 43.7079782,1.6500947 C43.7277068,1.61852904 43.751381,1.59288194 43.7790009,1.57315341 C43.8066209,1.55342487 43.8243766,1.52185922 43.832268,1.47845644 C43.804648,1.41927083 43.7760417,1.36008523 43.7464489,1.30089962 C43.7168561,1.24171402 43.6823311,1.18844697 43.6428741,1.14109848 C43.603417,1.09375 43.5570549,1.05527936 43.5037879,1.02568655 C43.4505208,0.99609375 43.3864031,0.981297348 43.3114347,0.981297348 C43.2601405,0.981297348 43.2206834,0.987215909 43.1930634,0.99905303 C43.1654435,1.01089015 43.1427557,1.02470013 43.125,1.04048295 C43.1072443,1.05626578 43.0885022,1.07303504 43.0687737,1.09079072 C43.0490451,1.1085464 43.0214252,1.12531566 42.9859138,1.14109848 C42.9938052,1.18450126 43.0007102,1.22889047 43.0066288,1.2742661 C43.0125473,1.31964173 43.0155066,1.36600379 43.0155066,1.41335227 C43.0155066,1.45675505 43.0105745,1.49818497 43.0007102,1.53764205 C42.990846,1.57709912 42.9721039,1.61458333 42.9444839,1.6500947 C42.9523753,1.67376894 42.9573074,1.69744318 42.9592803,1.72111742 C42.9612532,1.74479167 42.9622396,1.76846591 42.9622396,1.79214015 C42.9622396,1.90656566 42.9464568,2.02099116 42.9148911,2.13541667 C42.8833254,2.24984217 42.8635969,2.36426768 42.8557055,2.47869318 C42.7886285,2.4865846 42.72747,2.50631313 42.6722301,2.53787879 C42.6169902,2.56944444 42.5627367,2.60594223 42.5094697,2.64737216 C42.4562027,2.68880208 42.403922,2.72924558 42.3526278,2.76870265 C42.3013336,2.80815972 42.2441209,2.83972538 42.1809896,2.86339962 C42.1494239,2.93836806 42.1336411,3.01333649 42.1336411,3.08830492 C42.1336411,3.21456755 42.1908539,3.32307449 42.3052794,3.41382576 L42.3052794,3.41382576 L42.3171165,3.41382576 C42.3960306,3.41382576 42.4729719,3.40198864 42.5479403,3.37831439 C42.6229088,3.35464015 42.6998501,3.34280303 42.7787642,3.34280303 L42.7787642,3.34280303 L42.8142756,3.34280303 C42.7827099,3.48879419 42.7590357,3.63675821 42.7432528,3.78669508 L42.7432528,3.78669508 L42.6959044,4.23058712 C42.6801215,4.37657828 42.6594066,4.52158302 42.6337595,4.66560133 C42.6081124,4.80961963 42.5696417,4.95067866 42.5183475,5.08877841 C42.4157592,5.10061553 42.3190893,5.14105903 42.2283381,5.2101089 C42.1375868,5.27915878 42.0922112,5.37089646 42.0922112,5.48532197 C42.0922112,5.51688763 42.0981297,5.55437184 42.1099669,5.59777462 C42.121804,5.6411774 42.1375868,5.67668876 42.1573153,5.70430871 C42.1809896,5.73587437 42.2234059,5.76053504 42.2845644,5.77829072 C42.3457229,5.7960464 42.3960306,5.82070707 42.4354877,5.85227273 C42.3999763,6.02982955 42.3723564,6.20639994 42.3526278,6.3819839 C42.3328993,6.55756787 42.3092251,6.73611111 42.2816051,6.91761364 C42.2776594,6.93339646 42.2717408,6.96298927 42.2638494,7.00639205 C42.255958,7.04979482 42.2470802,7.09517045 42.2372159,7.14251894 C42.2273516,7.18986742 42.2194602,7.23228378 42.2135417,7.26976799 C42.2076231,7.30725221 42.2046638,7.32994003 42.2046638,7.33783144 C42.2046638,7.3693971 42.2115688,7.39208491 42.2253788,7.40589489 L42.2368871,7.42200652 C42.2430249,7.43428206 42.2460938,7.44962647 42.2460938,7.46803977 C42.1869081,7.50749684 42.1573153,7.56668245 42.1573153,7.64559659 C42.1573153,7.68505366 42.1622475,7.72352431 42.1721117,7.76100852 C42.181976,7.79849274 42.1928267,7.83301768 42.2046638,7.86458333 C42.1928267,7.88036616 42.181976,7.89713542 42.1721117,7.9148911 C42.1622475,7.93264678 42.1494239,7.94547033 42.1336411,7.95336174 C42.1533696,8.04411301 42.1721117,8.13683712 42.1898674,8.23153409 C42.2076231,8.32623106 42.2224195,8.41895518 42.2342566,8.50970644 C42.242148,8.55310922 42.2470802,8.59947128 42.249053,8.64879261 C42.2510259,8.69811395 42.255958,8.74250316 42.2638494,8.78196023 C42.2717408,8.80563447 42.2845644,8.81549874 42.3023201,8.81155303 C42.3200758,8.80760732 42.3289536,8.81944444 42.3289536,8.84706439 C42.3289536,8.86284722 42.3259943,8.87961648 42.3200758,8.89737216 C42.3141572,8.91512784 42.3111979,8.93386995 42.3111979,8.95359848 C42.3111979,9.03251263 42.32994,9.11438605 42.3674242,9.19921875 C42.4049085,9.28405145 42.4354877,9.36592487 42.4591619,9.44483902 C42.498619,9.48429609 42.5410354,9.52572601 42.586411,9.56912879 C42.6317866,9.61253157 42.681108,9.65297506 42.734375,9.69045928 C42.787642,9.7279435 42.8428819,9.75852273 42.9000947,9.78219697 C42.9573074,9.80587121 43.0174795,9.81770833 43.0806108,9.81770833 Z" id="THE" fill-rule="nonzero"></path>
                    </g>
                </g>
            </g>
        </g>
    </g>
</svg>